<svg width="40" height="40" viewBox="0 0 40 40" fill="none" xmlns="http://www.w3.org/2000/svg">
<path d="M14.25 2.875H5.75V30.3125H14.25V2.875Z" fill="#7DE294"/>
<path d="M10 19.75C11.1736 19.75 12.125 18.7986 12.125 17.625C12.125 16.4514 11.1736 15.5 10 15.5C8.82639 15.5 7.875 16.4514 7.875 17.625C7.875 18.7986 8.82639 19.75 10 19.75Z" fill="#CBF3D4"/>
<path d="M22.75 2.875H14.25V30.3125H22.75V2.875Z" fill="#FFA658"/>
<path d="M18.5 19.75C19.6736 19.75 20.625 18.7986 20.625 17.625C20.625 16.4514 19.6736 15.5 18.5 15.5C17.3264 15.5 16.375 16.4514 16.375 17.625C16.375 18.7986 17.3264 19.75 18.5 19.75Z" fill="#FFBD7B"/>
<path d="M31.3483 1.96426L22.9375 3.19336L26.905 30.3428L35.3157 29.1137L31.3483 1.96426Z" fill="#FF4D80"/>
<path d="M29.25 19.25C30.4236 19.25 31.375 18.2986 31.375 17.125C31.375 15.9514 30.4236 15 29.25 15C28.0764 15 27.125 15.9514 27.125 17.125C27.125 18.2986 28.0764 19.25 29.25 19.25Z" fill="#FF94B3"/>
<path d="M36.875 30.375H3.1875V33.4375H36.875V30.375Z" fill="#F0997D"/>
<path d="M4.8125 33.375L8.3125 38.0625V33.375H4.8125Z" fill="#F6C2B1"/>
<path d="M34.625 33.375L31.125 38.0625V33.375H34.625Z" fill="#F6C2B1"/>
<path d="M14.25 30.9375H5.75C5.4375 30.9375 5.125 30.6875 5.125 30.3125V2.875C5.125 2.5625 5.375 2.25 5.75 2.25H14.25C14.5625 2.25 14.875 2.5 14.875 2.875V30.3125C14.875 30.6875 14.625 30.9375 14.25 30.9375ZM6.375 29.75H13.6875V3.5H6.375V29.75Z" fill="#31323A"/>
<path d="M14.25 10.1875H5.75C5.4375 10.1875 5.125 9.9375 5.125 9.5625C5.125 9.25 5.375 8.9375 5.75 8.9375H14.25C14.5625 8.9375 14.875 9.1875 14.875 9.5625C14.875 9.9375 14.625 10.1875 14.25 10.1875Z" fill="#31323A"/>
<path d="M14.25 13H5.75C5.4375 13 5.125 12.75 5.125 12.375C5.125 12 5.375 11.75 5.75 11.75H14.25C14.5625 11.75 14.875 12 14.875 12.375C14.875 12.75 14.625 13 14.25 13Z" fill="#31323A"/>
<path d="M14.25 27.1875H5.75C5.4375 27.1875 5.125 26.9375 5.125 26.5625C5.125 26.25 5.375 25.9375 5.75 25.9375H14.25C14.5625 25.9375 14.875 26.1875 14.875 26.5625C14.875 26.9375 14.625 27.1875 14.25 27.1875Z" fill="#31323A"/>
<path d="M10 20.375C8.5 20.375 7.25 19.125 7.25 17.625C7.25 16.125 8.5 14.875 10 14.875C11.5 14.875 12.75 16.125 12.75 17.625C12.75 19.125 11.5 20.375 10 20.375ZM10 16.125C9.125 16.125 8.4375 16.8125 8.4375 17.6875C8.4375 18.5625 9.125 19.25 10 19.25C10.875 19.25 11.5625 18.5625 11.5625 17.6875C11.5625 16.8125 10.875 16.125 10 16.125Z" fill="#31323A"/>
<path d="M22.8125 30.9375H14.25C13.9375 30.9375 13.625 30.6875 13.625 30.3125V2.875C13.625 2.5625 13.875 2.25 14.25 2.25H22.75C23.0625 2.25 23.375 2.5 23.375 2.875V30.3125C23.375 30.6875 23.125 30.9375 22.8125 30.9375ZM14.875 29.75H22.1875V3.5H14.875V29.75Z" fill="#31323A"/>
<path d="M22.8125 10.1875H14.25C13.9375 10.1875 13.625 9.9375 13.625 9.5625C13.625 9.25 13.875 8.9375 14.25 8.9375H22.75C23.0625 8.9375 23.375 9.1875 23.375 9.5625C23.375 9.9375 23.125 10.1875 22.8125 10.1875Z" fill="#31323A"/>
<path d="M22.8125 13H14.25C13.9375 13 13.625 12.75 13.625 12.375C13.625 12 13.875 11.75 14.25 11.75H22.75C23.0625 11.75 23.375 12 23.375 12.375C23.375 12.75 23.125 13 22.8125 13Z" fill="#31323A"/>
<path d="M22.8125 27.1875H14.25C13.9375 27.1875 13.625 26.9375 13.625 26.5625C13.625 26.25 13.875 25.9375 14.25 25.9375H22.75C23.0625 25.9375 23.375 26.1875 23.375 26.5625C23.375 26.9375 23.125 27.1875 22.8125 27.1875Z" fill="#31323A"/>
<path d="M18.5 20.375C17 20.375 15.75 19.125 15.75 17.625C15.75 16.125 17 14.875 18.5 14.875C20 14.875 21.25 16.125 21.25 17.625C21.25 19.125 20.0625 20.375 18.5 20.375ZM18.5 16.125C17.625 16.125 16.9375 16.8125 16.9375 17.6875C16.9375 18.5625 17.625 19.25 18.5 19.25C19.375 19.25 20.0625 18.5625 20.0625 17.6875C20.0625 16.8125 19.375 16.125 18.5 16.125Z" fill="#31323A"/>
<path d="M26.875 30.9374C26.5625 30.9374 26.3125 30.7499 26.25 30.4374L22.3125 3.24988C22.3125 3.06238 22.3125 2.93738 22.4375 2.81238C22.5625 2.68738 22.6875 2.62488 22.8125 2.56238L31.25 1.31238C31.5625 1.24988 31.875 1.49988 31.9375 1.81238L35.9375 28.9999C35.9375 29.1874 35.9375 29.3124 35.8125 29.4374C35.6875 29.5624 35.5625 29.6249 35.4375 29.6874L27 30.9374C26.9375 30.9374 26.9375 30.9374 26.875 30.9374ZM23.625 3.68738L27.4375 29.6874L34.6875 28.6249L30.8125 2.62488L23.625 3.68738Z" fill="#31323A"/>
<path d="M23.8749 10.4374C23.5624 10.4374 23.3124 10.2499 23.2499 9.93738C23.1874 9.62488 23.4374 9.31238 23.7499 9.24988L32.1874 7.99988C32.4999 7.93738 32.8124 8.18738 32.8749 8.49988C32.9374 8.81238 32.6874 9.12488 32.3749 9.18738L23.9374 10.4374C23.9374 10.4374 23.9374 10.4374 23.8749 10.4374Z" fill="#31323A"/>
<path d="M24.3124 13.1874C23.9999 13.1874 23.7499 12.9999 23.6874 12.6874C23.6249 12.3749 23.8749 12.0624 24.1874 11.9999L32.6249 10.7499C32.9374 10.6874 33.2499 10.9374 33.3124 11.2499C33.3749 11.5624 33.1249 11.8749 32.8124 11.9374L24.3749 13.1874C24.3124 13.1874 24.3124 13.1874 24.3124 13.1874Z" fill="#31323A"/>
<path d="M26.3124 27.2499C25.9999 27.2499 25.7499 27.0624 25.6874 26.7499C25.6249 26.4374 25.8749 26.1249 26.1874 26.0624L34.6249 24.8124C34.9374 24.7499 35.2499 24.9999 35.3124 25.3124C35.3749 25.6249 35.1249 25.9374 34.8124 25.9999L26.3749 27.2499C26.3749 27.2499 26.3749 27.2499 26.3124 27.2499Z" fill="#31323A"/>
<path d="M29.2501 19.8744C27.9376 19.8744 26.7501 18.8744 26.5626 17.4994C26.3751 15.9994 27.3751 14.6244 28.8751 14.3744C30.3751 14.1244 31.7501 15.1869 32.0001 16.6869C32.1876 18.1869 31.1876 19.5619 29.6876 19.8119C29.5001 19.8744 29.3751 19.8744 29.2501 19.8744ZM29.2501 15.6244C29.1876 15.6244 29.1251 15.6244 29.0001 15.6244C28.1876 15.7494 27.5626 16.4994 27.6876 17.3744C27.8126 18.1869 28.5626 18.8119 29.4376 18.6869C30.2501 18.5619 30.8751 17.8119 30.7501 16.9369C30.6876 16.1869 30.0001 15.6244 29.2501 15.6244Z" fill="#31323A"/>
<path d="M36.8125 34H3.1875C2.875 34 2.5625 33.75 2.5625 33.375V30.3125C2.5625 30 2.8125 29.6875 3.1875 29.6875H36.875C37.1875 29.6875 37.5 29.9375 37.5 30.3125V33.375C37.4375 33.75 37.1875 34 36.8125 34ZM3.75 32.8125H36.25V31H3.75V32.8125Z" fill="#31323A"/>
<path d="M8.31215 38.6875C8.12465 38.6875 7.93715 38.625 7.81215 38.4375L4.31215 33.75C4.12465 33.5 4.18715 33.125 4.43715 32.875C4.68715 32.6875 5.06215 32.75 5.31215 33L7.68715 36.1875V33.375C7.68715 33.0625 7.93715 32.75 8.31215 32.75C8.62465 32.75 8.93715 33 8.93715 33.375V38.0625C8.93715 38.3125 8.74965 38.5625 8.49965 38.625C8.43715 38.6875 8.37465 38.6875 8.31215 38.6875Z" fill="#31323A"/>
<path d="M31.125 38.6875C31.0625 38.6875 31 38.6875 30.9375 38.6875C30.6875 38.625 30.5 38.375 30.5 38.125V33.4375C30.5 33.125 30.75 32.8125 31.125 32.8125C31.4375 32.8125 31.75 33.0625 31.75 33.4375V36.25L34.125 33.0625C34.3125 32.8125 34.6875 32.75 35 32.9375C35.25 33.125 35.3125 33.5 35.125 33.8125L31.625 38.5C31.5 38.5625 31.3125 38.6875 31.125 38.6875Z" fill="#31323A"/>
</svg>
