<svg width="40" height="40" viewBox="0 0 40 40" fill="none" xmlns="http://www.w3.org/2000/svg">
<path d="M35.4375 15.8125H28.8125V5.5C28.8125 3.5 27.1875 1.875 25.1875 1.875H5.1875C3.1875 1.875 1.5625 3.5 1.5625 5.5V32.625C1.5625 35.6875 4.0625 38.125 7.0625 38.125H33C36 38.125 38.4375 35.6875 38.4375 32.6875V18.875C38.4375 17.1875 37.0625 15.8125 35.4375 15.8125ZM7.0625 36.875C4.6875 36.875 2.8125 34.9375 2.8125 32.625V5.5C2.8125 4.1875 3.875 3.125 5.1875 3.125H25.125C26.4375 3.125 27.5 4.1875 27.5 5.5V16.4375V32.6875C27.5 34.375 28.25 35.875 29.5 36.875H7.0625ZM37.1875 32.6875C37.1875 35 35.3125 36.875 33 36.875C30.6875 36.875 28.8125 35 28.8125 32.6875V17.0625H33C32.625 17.5625 32.375 18.1875 32.375 18.875V32.6875C32.375 33 32.6875 33.3125 33 33.3125C33.3125 33.3125 33.625 33 33.625 32.6875V18.875C33.625 17.875 34.4375 17.0625 35.4375 17.0625C36.4375 17.0625 37.25 17.875 37.25 18.875V32.6875H37.1875Z" fill="#31323A"/>
<path d="M37.1875 18.875V32.6875C37.1875 35 35.3125 36.875 33 36.875C30.6875 36.875 28.8125 35 28.8125 32.6875V17.0625H33C32.625 17.5625 32.375 18.1875 32.375 18.875V32.6875C32.375 33 32.6875 33.3125 33 33.3125C33.3125 33.3125 33.625 33 33.625 32.6875V18.875C33.625 17.875 34.4375 17.0625 35.4375 17.0625C36.375 17.0625 37.1875 17.875 37.1875 18.875Z" fill="#BBA88C"/>
<path d="M27.5625 32.6875V16.4375V5.5C27.5625 4.1875 26.5 3.125 25.1875 3.125H5.1875C3.875 3.125 2.8125 4.1875 2.8125 5.5V32.625C2.8125 35 4.75 36.875 7.0625 36.875H29.5625C28.3125 35.875 27.5625 34.375 27.5625 32.6875ZM9.125 10C9.125 8.9375 10 8.0625 11.125 8.0625H12.0625V7.1875C12.0625 6.0625 13 5.1875 14.0625 5.1875H16.4375C17.5625 5.1875 18.4375 6.0625 18.4375 7.1875V8.0625H19.375C20.4375 8.0625 21.3125 8.9375 21.3125 10V15.625C21.3125 16.6875 20.4375 17.625 19.375 17.625H11.125C10.0625 17.625 9.125 16.75 9.125 15.625V10ZM13.625 33.3125H4.5625C4.25 33.3125 3.9375 33 3.9375 32.6875C3.9375 32.3125 4.25 32.0625 4.5625 32.0625H13.625C13.9375 32.0625 14.25 32.3125 14.25 32.6875C14.25 33 14 33.3125 13.625 33.3125ZM13.625 28.6875H4.5625C4.25 28.6875 3.9375 28.375 3.9375 28.0625C3.9375 27.75 4.25 27.4375 4.5625 27.4375H13.625C13.9375 27.4375 14.25 27.75 14.25 28.0625C14.25 28.375 14 28.6875 13.625 28.6875ZM13.625 24.625H4.5625C4.25 24.625 3.9375 24.3125 3.9375 24C3.9375 23.625 4.25 23.375 4.5625 23.375H13.625C13.9375 23.375 14.25 23.625 14.25 24C14.25 24.375 14 24.625 13.625 24.625ZM13.625 20.625H4.5625C4.25 20.625 3.9375 20.3125 3.9375 20C3.9375 19.6875 4.25 19.375 4.5625 19.375H13.625C13.9375 19.375 14.25 19.6875 14.25 20C14.25 20.3125 14 20.625 13.625 20.625ZM25.6875 33.3125H16.625C16.3125 33.3125 16 33 16 32.6875C16 32.3125 16.3125 32.0625 16.625 32.0625H25.6875C26.0625 32.0625 26.3125 32.3125 26.3125 32.6875C26.3125 33 26.0625 33.3125 25.6875 33.3125ZM25.6875 28.6875H16.625C16.3125 28.6875 16 28.375 16 28.0625C16 27.75 16.3125 27.4375 16.625 27.4375H25.6875C26.0625 27.4375 26.3125 27.75 26.3125 28.0625C26.3125 28.375 26.0625 28.6875 25.6875 28.6875ZM25.6875 24.625H16.625C16.3125 24.625 16 24.3125 16 24C16 23.625 16.3125 23.375 16.625 23.375H25.6875C26.0625 23.375 26.3125 23.625 26.3125 24C26.3125 24.375 26.0625 24.625 25.6875 24.625ZM25.6875 20.625H16.625C16.3125 20.625 16 20.3125 16 20C16 19.6875 16.3125 19.375 16.625 19.375H25.6875C26.0625 19.375 26.3125 19.6875 26.3125 20C26.3125 20.3125 26.0625 20.625 25.6875 20.625Z" fill="#F9E0BB"/>
<path d="M19.375 8.0625H18.4375V7.1875C18.4375 6.0625 17.5625 5.1875 16.4375 5.1875H14.0625C12.9375 5.1875 12.0625 6.0625 12.0625 7.1875V8.0625H11.125C10.0625 8.0625 9.125 8.9375 9.125 10V15.625C9.125 16.6875 10 17.625 11.125 17.625H19.375C20.4375 17.625 21.3125 16.75 21.3125 15.625V10C21.3125 8.9375 20.4375 8.0625 19.375 8.0625ZM13.3125 7.1875C13.3125 6.75 13.625 6.4375 14.0625 6.4375H16.4375C16.875 6.4375 17.1875 6.75 17.1875 7.1875V8.0625H13.3125V7.1875ZM20.0625 15.625C20.0625 16 19.75 16.375 19.375 16.375H11.125C10.75 16.375 10.375 16.0625 10.375 15.625V11.75L14.5625 12.875V13.375C14.5625 13.6875 14.875 14 15.1875 14C15.5 14 15.8125 13.6875 15.8125 13.375V12.875L20 11.75V15.625H20.0625ZM20.0625 10.5L15.875 11.625V11.3125C15.875 11 15.5625 10.6875 15.25 10.6875C14.9375 10.6875 14.625 11 14.625 11.3125V11.625L10.4375 10.5V10C10.4375 9.625 10.75 9.3125 11.1875 9.3125H19.375C19.75 9.3125 20.0625 9.625 20.0625 10V10.5Z" fill="#31323A"/>
<path d="M17.1875 7.1875V8.0625H13.3125V7.1875C13.3125 6.75 13.625 6.4375 14.0625 6.4375H16.4375C16.8125 6.4375 17.1875 6.75 17.1875 7.1875Z" fill="#F0997D"/>
<path d="M20.0625 10V10.5L15.875 11.625V11.3125C15.875 11 15.5625 10.6875 15.25 10.6875C14.9375 10.6875 14.625 11 14.625 11.3125V11.625L10.4375 10.5V10C10.4375 9.625 10.75 9.3125 11.1875 9.3125H19.375C19.75 9.3125 20.0625 9.625 20.0625 10Z" fill="#F0997D"/>
<path d="M20.0625 11.8125V15.625C20.0625 16 19.75 16.375 19.375 16.375H11.125C10.75 16.375 10.375 16.0625 10.375 15.625V11.75L14.5625 12.875V13.375C14.5625 13.6875 14.875 14 15.1875 14C15.5 14 15.8125 13.6875 15.8125 13.375V12.875L20.0625 11.8125Z" fill="#D3756B"/>
<path d="M14.25 20C14.25 20.3125 13.9375 20.625 13.625 20.625H4.5625C4.25 20.625 3.9375 20.3125 3.9375 20C3.9375 19.6875 4.25 19.375 4.5625 19.375H13.625C14 19.375 14.25 19.6875 14.25 20Z" fill="#31323A"/>
<path d="M26.3125 20C26.3125 20.3125 26.0625 20.625 25.6875 20.625H16.625C16.3125 20.625 16 20.3125 16 20C16 19.6875 16.3125 19.375 16.625 19.375H25.6875C26.0625 19.375 26.3125 19.6875 26.3125 20Z" fill="#31323A"/>
<path d="M14.25 24C14.25 24.3125 13.9375 24.625 13.625 24.625H4.5625C4.25 24.625 3.9375 24.3125 3.9375 24C3.9375 23.625 4.25 23.375 4.5625 23.375H13.625C14 23.375 14.25 23.6875 14.25 24Z" fill="#31323A"/>
<path d="M26.3125 24C26.3125 24.3125 26.0625 24.625 25.6875 24.625H16.625C16.3125 24.625 16 24.3125 16 24C16 23.625 16.3125 23.375 16.625 23.375H25.6875C26.0625 23.375 26.3125 23.6875 26.3125 24Z" fill="#31323A"/>
<path d="M14.25 28.0625C14.25 28.375 13.9375 28.6875 13.625 28.6875H4.5625C4.25 28.6875 3.9375 28.375 3.9375 28.0625C3.9375 27.75 4.25 27.4375 4.5625 27.4375H13.625C14 27.4375 14.25 27.6875 14.25 28.0625Z" fill="#31323A"/>
<path d="M26.3125 28.0625C26.3125 28.375 26.0625 28.6875 25.6875 28.6875H16.625C16.3125 28.6875 16 28.375 16 28.0625C16 27.75 16.3125 27.4375 16.625 27.4375H25.6875C26.0625 27.4375 26.3125 27.6875 26.3125 28.0625Z" fill="#31323A"/>
<path d="M14.25 32.6875C14.25 33 13.9375 33.3125 13.625 33.3125H4.5625C4.25 33.3125 3.9375 33 3.9375 32.6875C3.9375 32.3125 4.25 32.0625 4.5625 32.0625H13.625C14 32.0625 14.25 32.3125 14.25 32.6875Z" fill="#31323A"/>
<path d="M26.3125 32.6875C26.3125 33 26.0625 33.3125 25.6875 33.3125H16.625C16.3125 33.3125 16 33 16 32.6875C16 32.3125 16.3125 32.0625 16.625 32.0625H25.6875C26.0625 32.0625 26.3125 32.3125 26.3125 32.6875Z" fill="#31323A"/>
</svg>
