<svg width="40" height="40" viewBox="0 0 40 40" fill="none" xmlns="http://www.w3.org/2000/svg">
<path d="M36.25 7.25H30.4375V3.8125H33.75C35.1875 3.8125 36.3125 4.9375 36.3125 6.375V7.25H36.25Z" fill="#BBB3A3"/>
<path d="M25.25 35.375L24.1875 32.625L3.75 32.8125L4.125 34.375C4.375 35.4375 5.3125 36.1875 6.4375 36.1875H26.8125L25.25 35.375Z" fill="#BBB3A3"/>
<path d="M6.9375 32.8125V9.3125C6.9375 6.25 9.4375 3.8125 12.4375 3.8125H33.375L30.6875 5.9375L30.625 32.6875C30.625 32.6875 28.875 38 24.9375 34.875L23.875 33L6.9375 32.8125Z" fill="#F9EFD9"/>
<path d="M22.0001 36.8125H6.43761C5.06261 36.8125 3.8751 35.875 3.5626 34.5625L3.1876 33C3.1251 32.8125 3.18761 32.625 3.31261 32.5C3.43761 32.375 3.5626 32.25 3.75011 32.25L24.1251 32.0625C24.2501 32.0625 24.4376 32.125 24.5626 32.25C24.6876 32.375 24.7501 32.5 24.7501 32.6875V32.75C24.7501 34.1875 25.9376 35.4375 27.4376 35.4375C28.8751 35.4375 30.1251 34.25 30.1251 32.75V6.5625C30.1251 4.6875 31.6251 3.1875 33.5001 3.1875C35.3751 3.1875 36.8751 4.6875 36.8751 6.5625V7.25C36.8751 7.5625 36.6251 7.8125 36.3126 7.8125H33.5001C33.1876 7.8125 32.9376 7.5625 32.9376 7.25C32.9376 6.9375 33.1876 6.6875 33.5001 6.6875H35.6251V6.5625C35.6251 5.375 34.6251 4.375 33.4376 4.375C32.2501 4.375 31.2501 5.375 31.2501 6.5625V32.6875C31.2501 34.8125 29.5001 36.5625 27.3751 36.5625C25.4376 36.5625 23.8126 35.125 23.5626 33.25L4.5001 33.375L4.6876 34.25C4.87511 35.0625 5.62511 35.625 6.43761 35.625H22.0001C22.3126 35.625 22.5626 35.875 22.5626 36.1875C22.6251 36.5625 22.3126 36.8125 22.0001 36.8125Z" fill="#31323A"/>
<path d="M6.9375 33.375C6.625 33.375 6.375 33.125 6.375 32.8125V9.3125C6.375 5.9375 9.125 3.1875 12.5 3.1875H33.4375C33.75 3.1875 34 3.4375 34 3.75C34 4.125 33.75 4.375 33.4375 4.375H12.5C9.8125 4.375 7.5625 6.5625 7.5625 9.3125V32.8125C7.5625 33.125 7.3125 33.375 6.9375 33.375Z" fill="#31323A"/>
<path d="M21 11.125H13.0625C12.75 11.125 12.5 10.875 12.5 10.5625C12.5 10.25 12.75 10 13.0625 10H20.9375C21.25 10 21.5 10.25 21.5 10.5625C21.5625 10.8125 21.3125 11.125 21 11.125Z" fill="#31323A"/>
<path d="M25.0625 16.5625H13.0625C12.75 16.5625 12.5 16.3125 12.5 16C12.5 15.6875 12.75 15.4375 13.0625 15.4375H25C25.3125 15.4375 25.5625 15.6875 25.5625 16C25.625 16.25 25.375 16.5625 25.0625 16.5625Z" fill="#31323A"/>
<path d="M25.0625 21.9375H13.0625C12.75 21.9375 12.5 21.6875 12.5 21.375C12.5 21.0625 12.75 20.8125 13.0625 20.8125H25C25.3125 20.8125 25.5625 21.0625 25.5625 21.375C25.625 21.6875 25.375 21.9375 25.0625 21.9375Z" fill="#31323A"/>
<path d="M25.0625 27.375H13.0625C12.75 27.375 12.5 27.125 12.5 26.8125C12.5 26.5 12.75 26.25 13.0625 26.25H25C25.3125 26.25 25.5625 26.5 25.5625 26.8125C25.625 27.125 25.375 27.375 25.0625 27.375Z" fill="#31323A"/>
<path d="M24.9375 11.125H22.9375C22.625 11.125 22.375 10.875 22.375 10.5625C22.375 10.25 22.625 10 22.9375 10H24.9375C25.25 10 25.5 10.25 25.5 10.5625C25.5 10.8125 25.25 11.125 24.9375 11.125Z" fill="#31323A"/>
</svg>
