<svg width="40" height="40" viewBox="0 0 40 40" fill="none" xmlns="http://www.w3.org/2000/svg">
<path d="M31.4375 14.125V5.9375C31.4375 5.5625 31.125 5.3125 30.8125 5.3125H11.625C11.3125 2.75 9.125 0.8125 6.5 0.8125C3.6875 0.8125 1.375 3.125 1.375 5.9375V32.75C1.375 33.0625 1.6875 33.375 2 33.375C2.375 33.375 2.625 33.0625 2.625 32.75C2.625 30.625 4.375 28.875 6.5 28.875C8.625 28.875 10.375 30.625 10.375 32.75C10.375 32.8125 10.375 32.9375 10.4375 33C10.5625 33.25 10.75 33.375 11 33.375H28.1875V36.625C28.1875 38.0625 29.375 39.25 30.75 39.25C32.1875 39.25 33.3125 38.0625 33.3125 36.625V29.25C36.3125 28.1875 38.5 25.3125 38.5 21.875C38.625 17.8125 35.5 14.4375 31.4375 14.125ZM10.375 5.9375V29.375C9.4375 28.25 8.0625 27.5625 6.5 27.5625C4.9375 27.5625 3.5625 28.25 2.625 29.375V5.9375C2.625 3.8125 4.375 2.0625 6.5 2.0625C8.625 2.0625 10.375 3.8125 10.375 5.9375ZM28.25 32.125H11.625V6.5625H30.1875V14.125C26.1875 14.4375 23 17.8125 23 21.875C23 25.25 25.1875 28.125 28.1875 29.25V32.125H28.25ZM32.1875 36.625C32.1875 37.375 31.5625 38 30.875 38C30.125 38 29.5625 37.375 29.5625 36.625V29.5625C30 29.625 30.4375 29.6875 30.875 29.6875C31.3125 29.6875 31.8125 29.625 32.1875 29.5625V36.625ZM30.8125 28.4375C27.1875 28.4375 24.25 25.5 24.25 21.875C24.25 18.25 27.1875 15.3125 30.8125 15.3125C34.4375 15.3125 37.375 18.25 37.375 21.875C37.375 25.5 34.4375 28.4375 30.8125 28.4375Z" fill="#31323A"/>
<path d="M32.1875 29.5625V36.625C32.1875 37.375 31.5625 38 30.875 38C30.125 38 29.5625 37.375 29.5625 36.625V29.5625C30 29.625 30.4375 29.6875 30.875 29.6875C31.3125 29.6875 31.75 29.625 32.1875 29.5625Z" fill="#818595"/>
<path d="M30.8125 15.375C27.1875 15.375 24.25 18.3125 24.25 21.9375C24.25 25.5625 27.1875 28.5 30.8125 28.5C34.4375 28.5 37.375 25.5625 37.375 21.9375C37.375 18.3125 34.4375 15.375 30.8125 15.375ZM30.8125 27.125C27.9375 27.125 25.5625 24.75 25.5625 21.875C25.5625 19 27.9375 16.625 30.8125 16.625C33.6875 16.625 36.0625 19 36.0625 21.875C36.0625 24.8125 33.75 27.125 30.8125 27.125Z" fill="#818595"/>
<path d="M30.1875 14.125V6.5625H11.625V32.125H28.1875V29.25C25.1875 28.1875 23 25.3125 23 21.875C23.0625 17.8125 26.1875 14.4375 30.1875 14.125ZM13.75 8.75C13.75 8.4375 14.0625 8.125 14.375 8.125H27.5C27.8125 8.125 28.125 8.4375 28.125 8.75V11.875C28.125 12.1875 27.8125 12.5 27.5 12.5H14.375C14.0625 12.5 13.75 12.1875 13.75 11.875V8.75ZM14.375 21.75H21.25C21.5625 21.75 21.875 22.0625 21.875 22.375C21.875 22.6875 21.5625 23 21.25 23H14.375C14.0625 23 13.75 22.6875 13.75 22.375C13.75 22.0625 14 21.75 14.375 21.75ZM13.75 18.9375C13.75 18.5625 14.0625 18.3125 14.375 18.3125H21.25C21.5625 18.3125 21.875 18.5625 21.875 18.9375C21.875 19.25 21.5625 19.5625 21.25 19.5625H14.375C14 19.5625 13.75 19.3125 13.75 18.9375ZM14.375 25.25H21.75C22.0625 25.25 22.375 25.5625 22.375 25.875C22.375 26.1875 22.0625 26.5 21.75 26.5H14.375C14.0625 26.5 13.75 26.1875 13.75 25.875C13.75 25.5625 14 25.25 14.375 25.25ZM24.3125 28.6875C24.625 28.6875 24.9375 29 24.9375 29.3125C24.9375 29.625 24.625 29.9375 24.3125 29.9375H14.375C14.0625 29.9375 13.75 29.625 13.75 29.3125C13.75 29 14.0625 28.6875 14.375 28.6875H24.3125ZM23 16.0625H14.375C14.0625 16.0625 13.75 15.75 13.75 15.4375C13.75 15.0625 14.0625 14.8125 14.375 14.8125H23C23.3125 14.8125 23.625 15.0625 23.625 15.4375C23.625 15.75 23.3125 16.0625 23 16.0625Z" fill="#FFE3D5"/>
<path d="M10.375 5.9375V29.375C9.4375 28.25 8.0625 27.5625 6.5 27.5625C4.9375 27.5625 3.5625 28.25 2.625 29.375V5.9375C2.625 3.8125 4.375 2.0625 6.5 2.0625C8.625 2.0625 10.375 3.8125 10.375 5.9375Z" fill="#FCEEE5"/>
<path d="M30.8125 16.6875C27.9375 16.6875 25.5625 19.0625 25.5625 21.9375C25.5625 24.8125 27.9375 27.1875 30.8125 27.1875C33.6875 27.1875 36.0625 24.8125 36.0625 21.9375C36.0625 19 33.75 16.6875 30.8125 16.6875ZM30.8125 25.875C28.625 25.875 26.8125 24.0625 26.8125 21.875C26.8125 19.6875 28.625 17.875 30.8125 17.875C33 17.875 34.8125 19.6875 34.8125 21.875C34.8125 24.125 33.0625 25.875 30.8125 25.875Z" fill="#31323A"/>
<path d="M34.8125 21.875C34.8125 24.0625 33 25.875 30.8125 25.875C28.625 25.875 26.8125 24.0625 26.8125 21.875C26.8125 19.6875 28.625 17.875 30.8125 17.875C33.0625 17.9375 34.8125 19.6875 34.8125 21.875Z" fill="#75DEEF"/>
<path d="M27.5 8.125H14.375C14.0625 8.125 13.75 8.4375 13.75 8.75V11.875C13.75 12.1875 14.0625 12.5 14.375 12.5H27.5C27.8125 12.5 28.125 12.1875 28.125 11.875V8.75C28.125 8.4375 27.8125 8.125 27.5 8.125ZM26.875 11.25H15V9.375H26.875V11.25Z" fill="#31323A"/>
<path d="M26.875 9.375H15V11.25H26.875V9.375Z" fill="#BFAAA0"/>
<path d="M23.625 15.4375C23.625 15.75 23.3125 16.0625 23 16.0625H14.375C14.0625 16.0625 13.75 15.75 13.75 15.4375C13.75 15.0625 14.0625 14.8125 14.375 14.8125H23C23.3125 14.8125 23.625 15.0625 23.625 15.4375Z" fill="#31323A"/>
<path d="M21.875 18.9375C21.875 19.25 21.5625 19.5625 21.25 19.5625H14.375C14.0625 19.5625 13.75 19.25 13.75 18.9375C13.75 18.5625 14.0625 18.3125 14.375 18.3125H21.25C21.625 18.3125 21.875 18.625 21.875 18.9375Z" fill="#31323A"/>
<path d="M21.875 22.375C21.875 22.6875 21.5625 23 21.25 23H14.375C14.0625 23 13.75 22.6875 13.75 22.375C13.75 22.0625 14.0625 21.75 14.375 21.75H21.25C21.625 21.75 21.875 22 21.875 22.375Z" fill="#31323A"/>
<path d="M22.375 25.875C22.375 26.1875 22.0625 26.5 21.75 26.5H14.375C14.0625 26.5 13.75 26.1875 13.75 25.875C13.75 25.5625 14.0625 25.25 14.375 25.25H21.75C22.0625 25.25 22.375 25.5 22.375 25.875Z" fill="#31323A"/>
<path d="M24.9375 29.3125C24.9375 29.625 24.625 29.9375 24.3125 29.9375H14.375C14.0625 29.9375 13.75 29.625 13.75 29.3125C13.75 29 14.0625 28.6875 14.375 28.6875H24.375C24.6875 28.6875 24.9375 28.9375 24.9375 29.3125Z" fill="#31323A"/>
</svg>
