<svg width="55" height="56" viewBox="0 0 55 56" fill="none" xmlns="http://www.w3.org/2000/svg">
<path d="M45.1857 22.659L40.5193 16.1707C39.2131 14.3574 37.099 13.2746 34.8646 13.2746H31.8568C33.1201 12.0973 33.9193 10.4301 33.9193 8.57383C33.9193 5.0332 31.0404 2.1543 27.4998 2.1543C23.9592 2.1543 21.0802 5.0332 21.0802 8.57383C21.0802 10.4301 21.8795 12.0973 23.1427 13.2746H20.1349C17.9006 13.2746 15.7865 14.3574 14.4802 16.1707L9.81384 22.659C8.42165 24.5926 8.79978 27.2566 10.6646 28.7348L16.3537 33.2379C17.0584 33.7965 17.9006 34.0715 18.7427 34.0715C18.8974 34.0715 19.0521 34.0371 19.1982 34.0199V39.1848C19.1982 40.5426 20.3154 41.6512 21.6732 41.6512H22.5584V51.0613C22.5584 52.677 23.8818 53.9918 25.4974 53.9918H29.5021C31.1177 53.9918 32.4412 52.677 32.4412 51.0613V41.6512H33.3263C34.6842 41.6512 35.8013 40.5426 35.8013 39.1848V34.0199C35.9474 34.0371 36.1021 34.0715 36.2568 34.0715C37.099 34.0715 37.9412 33.7965 38.6459 33.2379L44.3349 28.7348C46.1998 27.2566 46.5779 24.5926 45.1857 22.659ZM22.799 8.57383C22.799 5.98711 24.9131 3.87305 27.4998 3.87305C30.0865 3.87305 32.2006 5.98711 32.2006 8.57383C32.2006 11.1605 30.0865 13.2746 27.4998 13.2746C24.9131 13.2746 22.799 11.1691 22.799 8.57383ZM34.0826 39.1848C34.0826 39.5973 33.7388 39.9324 33.3263 39.9324H32.4326V33.7105C32.4326 33.2293 32.0459 32.8512 31.5732 32.8512C31.1006 32.8512 30.7138 33.2293 30.7138 33.7105V40.7918C30.7138 40.7918 30.7138 40.8004 30.7224 40.809V51.0613C30.7224 51.723 30.1724 52.273 29.5021 52.273H28.3592V41.3762C28.3592 40.8949 27.9724 40.5168 27.4998 40.5168C27.0271 40.5168 26.6404 40.8949 26.6404 41.3762V52.273H25.4974C24.8271 52.273 24.2771 51.723 24.2771 51.0613V40.809C24.2771 40.809 24.2857 40.8004 24.2857 40.7918V33.7105C24.2857 33.2293 23.899 32.8512 23.4263 32.8512C22.9537 32.8512 22.567 33.2293 22.567 33.7105V39.9324H21.6732C21.2607 39.9324 20.917 39.5973 20.917 39.1848V33.3754C21.2263 33.1691 21.5185 32.9285 21.7592 32.6277C22.9709 31.1238 22.8506 28.9238 21.5185 27.5402C22.1888 26.5004 23.3576 25.8473 24.6209 25.8473H30.3787C31.642 25.8473 32.8107 26.5004 33.481 27.5402C32.149 28.9238 32.0287 31.1238 33.2404 32.6277C33.481 32.9285 33.7732 33.1691 34.0826 33.3754V39.1848ZM24.7068 21.3441C24.7068 19.7973 25.9615 18.5512 27.4998 18.5512C29.0381 18.5512 30.2927 19.7973 30.2927 21.3441C30.2927 22.891 29.0466 24.1199 27.5084 24.1285H27.4912C25.9529 24.1199 24.7068 22.8738 24.7068 21.3441ZM43.2693 27.3855L37.5802 31.8887C36.6607 32.6191 35.3115 32.4645 34.581 31.5535C33.8849 30.6855 33.9709 29.4137 34.7787 28.6574L38.8607 24.8074C39.2045 24.4809 39.2217 23.9395 38.8951 23.5957C38.5685 23.252 38.0271 23.2348 37.6834 23.5613L34.7271 26.3457C33.8334 25.134 32.4842 24.3434 30.9802 24.1715C31.6162 23.398 32.0115 22.4184 32.0115 21.3441C32.0115 18.852 29.9834 16.8324 27.4998 16.8324C25.0162 16.8324 22.9881 18.852 22.9881 21.3441C22.9881 22.4184 23.3834 23.398 24.0193 24.1715C22.5154 24.3434 21.1662 25.134 20.2724 26.3457L17.3162 23.5613C16.9724 23.2348 16.431 23.252 16.1045 23.5957C15.7779 23.9395 15.7951 24.4809 16.1388 24.8074L20.2209 28.6574C21.0287 29.4137 21.1146 30.6855 20.4185 31.5535C19.6881 32.4645 18.3388 32.6191 17.4193 31.8887L11.7302 27.3855C10.5873 26.4832 10.3552 24.8504 11.206 23.6645L15.881 17.1762C16.8607 15.8098 18.4506 14.9934 20.1349 14.9934H34.8646C36.549 14.9934 38.1388 15.8098 39.1185 17.1762L43.7935 23.6645C44.6443 24.8504 44.4123 26.4832 43.2693 27.3855Z" fill="#31323A"/>
<path d="M32.2004 8.57383C32.2004 11.1691 30.0863 13.2746 27.4996 13.2746C24.9129 13.2746 22.7988 11.1691 22.7988 8.57383C22.7988 5.97852 24.9129 3.87305 27.4996 3.87305C30.0863 3.87305 32.2004 5.98711 32.2004 8.57383Z" fill="#FCDDB0"/>
<path d="M30.293 21.3438C30.293 22.8734 29.0469 24.1195 27.5086 24.1281H27.4914C25.9531 24.1195 24.707 22.8734 24.707 21.3438C24.707 19.8141 25.9617 18.5508 27.5 18.5508C29.0383 18.5508 30.293 19.7969 30.293 21.3438Z" fill="#FCDDB0"/>
<path d="M43.2699 27.3844L37.5809 31.8875C36.6613 32.618 35.3121 32.4633 34.5816 31.5523C33.8855 30.6844 33.9715 29.4125 34.7793 28.6562L38.8613 24.8062C39.2051 24.4797 39.2223 23.9383 38.8957 23.5945C38.5691 23.2508 38.0277 23.2336 37.684 23.5602L34.7277 26.3445C33.834 25.1328 32.4848 24.3422 30.9809 24.1703C31.6168 23.3969 32.0121 22.4172 32.0121 21.343C32.0121 18.8508 29.984 16.8312 27.5004 16.8312C25.0168 16.8312 22.9887 18.8508 22.9887 21.343C22.9887 22.4172 23.384 23.3969 24.0199 24.1703C22.516 24.3422 21.1668 25.1328 20.273 26.3445L17.3168 23.5602C16.973 23.2336 16.4316 23.2508 16.1051 23.5945C15.7785 23.9383 15.7957 24.4797 16.1394 24.8062L20.2215 28.6562C21.0293 29.4125 21.1152 30.6844 20.4191 31.5523C19.6887 32.4633 18.3394 32.618 17.4199 31.8875L11.7308 27.3844C10.5879 26.482 10.3558 24.8492 11.2066 23.6633L15.8816 17.175C16.8613 15.8086 18.4512 14.9922 20.1355 14.9922H34.8652C36.5496 14.9922 38.1394 15.8086 39.1191 17.175L43.7941 23.6633C44.6449 24.8492 44.4129 26.482 43.2699 27.3844Z" fill="#88ADFF"/>
<path d="M34.0826 33.3738V39.1832C34.0826 39.5957 33.7389 39.9309 33.3264 39.9309H32.4326V33.709C32.4326 33.2277 32.0459 32.8496 31.5732 32.8496C31.1006 32.8496 30.7139 33.2277 30.7139 33.709V40.7902C30.7139 40.7902 30.7139 40.7988 30.7225 40.8074V51.0598C30.7225 51.7215 30.1725 52.2715 29.5021 52.2715H28.3592V41.3746C28.3592 40.8934 27.9725 40.5152 27.4998 40.5152C27.0271 40.5152 26.6404 40.8934 26.6404 41.3746V52.2715H25.4975C24.8271 52.2715 24.2771 51.7215 24.2771 51.0598V40.8074C24.2771 40.8074 24.2857 40.7988 24.2857 40.7902V33.709C24.2857 33.2277 23.899 32.8496 23.4264 32.8496C22.9537 32.8496 22.567 33.2277 22.567 33.709V39.9309H21.6732C21.2607 39.9309 20.917 39.5957 20.917 39.1832V33.3738C21.2264 33.1676 21.5186 32.927 21.7592 32.6262C22.9709 31.1223 22.8506 28.9223 21.5186 27.5387C22.1889 26.4988 23.3576 25.8457 24.6209 25.8457H30.3787C31.642 25.8457 32.8107 26.4988 33.4811 27.5387C32.149 28.9223 32.0287 31.1223 33.2404 32.6262C33.4811 32.927 33.7732 33.1676 34.0826 33.3738Z" fill="#88CC69"/>
</svg>
