<svg width="55" height="55" viewBox="0 0 55 55" fill="none" xmlns="http://www.w3.org/2000/svg">
<path d="M51.0469 34.8047L42.2812 30.7656V25.4375L44 27.1562C44.1719 27.3281 44.4297 27.4141 44.6016 27.4141C44.7734 27.4141 45.0312 27.3281 45.2031 27.1562C45.5469 26.8125 45.5469 26.2969 45.2031 25.9531L42.0234 22.7734L28.3594 9.02344V7.39063H33.4297C33.9453 7.39063 34.2891 6.96094 34.2891 6.53125V2.0625C34.2891 1.54688 33.9453 1.20312 33.4297 1.20312H27.5C27.0703 1.20312 26.6406 1.54688 26.6406 2.0625V9.10938L12.9766 22.7734L9.88281 25.8672C9.53906 26.2109 9.53906 26.7266 9.88281 27.0703C10.2266 27.4141 10.7422 27.4141 11.0859 27.0703L12.7188 25.4375V30.7656L3.95312 34.8047C3.60937 34.8906 3.4375 35.2344 3.4375 35.5781V53.0234C3.4375 53.5391 3.78125 53.8828 4.29688 53.8828H13.5781H41.4219H50.7031C51.2188 53.8828 51.5625 53.5391 51.5625 53.0234V35.5781C51.5625 35.2344 51.3906 34.8906 51.0469 34.8047ZM28.3594 2.92188H32.5703V5.75781H28.3594V2.92188ZM12.7188 52.0781H5.15625V36.0938L12.7188 32.5703V52.0781ZM30.7656 52.0781H24.2344V41.6797H30.7656V52.0781ZM40.5625 52.0781H32.4844V40.8203C32.4844 40.3047 32.0547 39.9609 31.625 39.9609H23.375C22.9453 39.9609 22.5156 40.3047 22.5156 40.8203V52.0781H14.4375V23.7188L27.5 10.6562L40.5625 23.6328V52.0781ZM49.8438 52.0781H42.2812V32.6562L49.8438 36.0938V52.0781Z" fill="#31323A"/>
<path d="M32.5703 2.92188H28.3594V5.75781H32.5703V2.92188Z" fill="#FF4D80"/>
<path d="M30.7656 41.6797H24.2344V52.0781H30.7656V41.6797Z" fill="#A0E9FF"/>
<path d="M49.8437 36.0938V52.0781H42.2812V32.6562L49.8437 36.0938Z" fill="#F9D9C4"/>
<path d="M27.5 10.6562L14.4375 23.7188V52.1641H22.5156V40.8203C22.5156 40.3047 22.9453 39.9609 23.375 39.9609H31.625C32.0547 39.9609 32.4844 40.3047 32.4844 40.8203V52.0781H40.5625V23.6328L27.5 10.6562ZM25.0078 31.2813C25.0078 31.7109 24.5781 32.1406 24.1484 32.1406H18.9063C18.3906 32.1406 18.0469 31.7109 18.0469 31.2813V25.9531C18.0469 25.4375 18.3906 25.0938 18.9063 25.0938H24.2344C24.6641 25.0938 25.0938 25.4375 25.0938 25.9531V31.2813H25.0078ZM36.9531 31.2813C36.9531 31.7109 36.5234 32.1406 36.0938 32.1406H30.7656C30.3359 32.1406 29.9062 31.7109 29.9062 31.2813V25.9531C29.9062 25.4375 30.3359 25.0938 30.7656 25.0938H36.0938C36.5234 25.0938 36.9531 25.4375 36.9531 25.9531V31.2813Z" fill="#F9F9E0"/>
<path d="M12.7188 32.6562V52.0781H5.15625V36.0938L12.7188 32.6562Z" fill="#F9D9C4"/>
<path d="M24.1484 25.0938H18.9062C18.3906 25.0938 18.0469 25.4375 18.0469 25.9531V31.2813C18.0469 31.7109 18.3906 32.1406 18.9062 32.1406H24.2344C24.6641 32.1406 25.0938 31.7109 25.0938 31.2813V25.9531C25.0078 25.4375 24.6641 25.0938 24.1484 25.0938ZM23.2891 30.4219H19.7656V26.8125H23.375V30.4219H23.2891Z" fill="#31323A"/>
<path d="M23.375 26.8125H19.7656V30.4219H23.375V26.8125Z" fill="#A0E9FF"/>
<path d="M36.0938 25.0938H30.7656C30.3359 25.0938 29.9062 25.4375 29.9062 25.9531V31.2813C29.9062 31.7109 30.3359 32.1406 30.7656 32.1406H36.0938C36.5234 32.1406 36.9531 31.7109 36.9531 31.2813V25.9531C36.9531 25.4375 36.6094 25.0938 36.0938 25.0938ZM35.2344 30.4219H31.625V26.8125H35.2344V30.4219Z" fill="#31323A"/>
<path d="M35.2344 26.8125H31.625V30.4219H35.2344V26.8125Z" fill="#A0E9FF"/>
</svg>
