<svg width="18" height="18" viewBox="0 0 18 18" fill="none" xmlns="http://www.w3.org/2000/svg">
<path d="M14.6341 7.63424C14.6341 7.52214 14.612 7.41113 14.5691 7.30756C14.5262 7.20399 14.4633 7.10989 14.384 7.03062C14.3048 6.95135 14.2107 6.88847 14.1071 6.84557C14.0035 6.80267 13.8925 6.78059 13.7804 6.78059C13.6683 6.78059 13.5573 6.80267 13.4537 6.84557C13.3502 6.88847 13.2561 6.95135 13.1768 7.03062C13.0975 7.10989 13.0346 7.20399 12.9917 7.30756C12.9488 7.41113 12.9268 7.52214 12.9268 7.63424H14.6341ZM5.07323 7.63424C5.07323 7.40784 4.9833 7.19071 4.82321 7.03062C4.66312 6.87053 4.44599 6.78059 4.21959 6.78059C3.99319 6.78059 3.77606 6.87053 3.61597 7.03062C3.45588 7.19071 3.36594 7.40784 3.36594 7.63424H5.07323ZM14.5425 9.60378C14.7027 9.76389 14.9198 9.85384 15.1462 9.85384C15.3727 9.85384 15.5898 9.76389 15.7499 9.60378C15.9101 9.44367 16 9.22651 16 9.00008C16 8.77365 15.9101 8.55649 15.7499 8.39638L14.5425 9.60378ZM9 2.85381L9.6037 2.25011C9.52443 2.17082 9.43031 2.10792 9.32673 2.065C9.22315 2.02209 9.11212 2 9 2C8.88788 2 8.77686 2.02209 8.67327 2.065C8.56969 2.10792 8.47557 2.17082 8.3963 2.25011L9 2.85381ZM2.25006 8.39638C2.08995 8.55649 2 8.77365 2 9.00008C2 9.22651 2.08995 9.44367 2.25006 9.60378C2.41017 9.76389 2.62733 9.85384 2.85376 9.85384C3.08019 9.85384 3.29734 9.76389 3.45746 9.60378L2.25006 8.39638ZM5.58542 16H12.4146V14.2927H5.58542V16ZM14.6341 13.7805V7.63424H12.9268V13.7805H14.6341ZM5.07323 13.7805V7.63424H3.36594V13.7805H5.07323ZM15.7499 8.39638L9.6037 2.25011L8.3963 3.45751L14.5425 9.60378L15.7499 8.39638ZM8.3963 2.25011L2.25006 8.39638L3.45746 9.60378L9.6037 3.45751L8.3963 2.25011ZM12.4146 16C13.0032 16 13.5678 15.7662 13.984 15.3499C14.4002 14.9337 14.6341 14.3692 14.6341 13.7805H12.9268C12.9268 13.9164 12.8728 14.0466 12.7768 14.1427C12.6807 14.2387 12.5504 14.2927 12.4146 14.2927V16ZM5.58542 14.2927C5.44958 14.2927 5.3193 14.2387 5.22325 14.1427C5.1272 14.0466 5.07323 13.9164 5.07323 13.7805H3.36594C3.36594 14.3692 3.59978 14.9337 4.01601 15.3499C4.43225 15.7662 4.99678 16 5.58542 16V14.2927Z" fill="#585656"/>
</svg>
