<svg width="34" height="34" viewBox="0 0 34 34" fill="none" xmlns="http://www.w3.org/2000/svg">
<path d="M11.3345 17C11.3345 16.2558 11.4811 15.5189 11.7659 14.8314C12.0507 14.1438 12.4681 13.5191 12.9944 12.9929C13.5206 12.4666 14.1454 12.0492 14.8329 11.7644C15.5205 11.4796 16.2575 11.3331 17.0017 11.3331C17.7459 11.3331 18.4829 11.4796 19.1705 11.7644C19.858 12.0492 20.4828 12.4666 21.009 12.9929C21.5353 13.5191 21.9527 14.1438 22.2375 14.8314C22.5223 15.5189 22.6689 16.2558 22.6689 17C22.6689 18.503 22.0718 19.9444 21.009 21.0071C19.9462 22.0699 18.5047 22.667 17.0017 22.667C15.4987 22.667 14.0572 22.0699 12.9944 21.0071C11.9315 19.9444 11.3345 18.503 11.3345 17ZM8.27091 17C8.27091 18.1464 8.49672 19.2815 8.93544 20.3406C9.37416 21.3997 10.0172 22.3621 10.8279 23.1727C11.6385 23.9833 12.6009 24.6263 13.66 25.065C14.7192 25.5037 15.8544 25.7295 17.0008 25.7295C18.1473 25.7295 19.2825 25.5037 20.3417 25.065C21.4008 24.6263 22.3632 23.9833 23.1738 23.1727C23.9845 22.3621 24.6275 21.3997 25.0663 20.3406C25.505 19.2815 25.7308 18.1464 25.7308 17C25.7308 14.6848 24.811 12.4644 23.1738 10.8273C21.5367 9.19021 19.3162 8.2705 17.0008 8.2705C14.6855 8.2705 12.465 9.19021 10.8279 10.8273C9.19067 12.4644 8.27091 14.6848 8.27091 17ZM24.0358 7.9254C24.0358 8.32887 24.1555 8.72329 24.3796 9.05876C24.6038 9.39424 24.9224 9.65571 25.2952 9.81011C25.668 9.96452 26.0782 10.0049 26.4739 9.9262C26.8696 9.84749 27.2332 9.6532 27.5185 9.3679C27.8038 9.0826 27.9981 8.71911 28.0768 8.32338C28.1555 7.92766 28.1151 7.51749 27.9607 7.14473C27.8063 6.77196 27.5448 6.45336 27.2093 6.2292C26.8738 6.00504 26.4794 5.8854 26.0759 5.8854C25.5348 5.8854 25.0159 6.10033 24.6333 6.4829C24.2507 6.86548 24.0358 7.38436 24.0358 7.9254ZM10.1325 30.838C8.47492 30.7615 7.57388 30.4861 6.97545 30.2532C6.23696 29.9807 5.5689 29.5462 5.02035 28.9816C4.45577 28.4331 4.02125 27.7651 3.74869 27.0266C3.51408 26.4282 3.23866 25.5272 3.16386 23.8697C3.08055 22.0779 3.06525 21.5407 3.06525 17.0017C3.06525 12.4627 3.08225 11.9238 3.16386 10.1303C3.23866 8.4728 3.51748 7.5735 3.74869 6.9734C4.0564 6.1795 4.42532 5.6134 5.02035 5.0184C5.61538 4.4234 6.17981 4.0545 6.97545 3.7468C7.57388 3.5122 8.47492 3.2368 10.1325 3.162C11.9244 3.077 12.4616 3.06 17.0008 3.06C21.5401 3.06 22.0773 3.077 23.8709 3.1603C25.5285 3.2351 26.4278 3.5139 27.028 3.7451C27.8219 4.0511 28.388 4.4217 28.983 5.0167C29.5781 5.6117 29.947 6.1778 30.2564 6.9717C30.4893 7.5701 30.7664 8.4711 30.8395 10.1286C30.9228 11.9221 30.9398 12.4576 30.9398 16.9983C30.9398 21.5373 30.9228 22.0745 30.8395 23.868C30.7647 25.5255 30.4876 26.4265 30.2564 27.0249C29.9839 27.7634 29.5493 28.4314 28.9847 28.9799C28.4362 29.5445 27.7681 29.979 27.0296 30.2515C26.4295 30.4844 25.5285 30.7615 23.8709 30.8363C22.079 30.9179 21.5418 30.9349 17.0008 30.9349C12.4616 30.9349 11.9244 30.9179 10.1325 30.8363M9.9914 0.102C8.18251 0.1853 6.94485 0.4726 5.86529 0.8925C4.73044 1.31889 3.70233 1.98782 2.85274 2.8526C1.98792 3.70215 1.31895 4.7302 0.892545 5.865C0.472624 6.9462 0.185309 8.1821 0.103705 9.9909C0.017001 11.8031 0 12.3828 0 17C0 21.6172 0.0187008 22.1969 0.102005 24.0091C0.185309 25.8179 0.472624 27.0538 0.892545 28.135C1.31917 29.2692 1.98813 30.2966 2.85274 31.1457C3.70216 32.0111 4.73028 32.6806 5.86529 33.1075C6.94655 33.5274 8.18251 33.8147 9.9914 33.8963C11.8054 33.9796 12.3834 34 17.0008 34C21.6183 34 22.198 33.9813 24.0103 33.898C25.8192 33.8147 27.0552 33.5274 28.1364 33.1075C29.2708 32.6804 30.2983 32.0109 31.1473 31.1457C32.0123 30.2973 32.6818 29.2704 33.1092 28.1367C33.5291 27.0538 33.8181 25.8179 33.898 24.0091C33.9813 22.1952 34 21.6172 34 17C34 12.3828 33.9813 11.8031 33.898 9.9909C33.8164 8.1821 33.5291 6.9445 33.1092 5.865C32.6822 4.73005 32.0127 3.70198 31.1473 2.8526C30.2987 1.98823 29.2717 1.31932 28.1381 0.8925C27.0552 0.4726 25.8192 0.1836 24.012 0.1037C22.198 0.0204002 21.62 0 17.0008 0C12.3817 0 11.8037 0.0186999 9.9897 0.102" fill="white"/>
</svg>
