<svg width="22" height="22" viewBox="0 0 22 22" fill="none" xmlns="http://www.w3.org/2000/svg">
<path d="M13.9544 3.73455C12.9182 3.73455 11.9243 4.1467 11.1916 4.88033C10.4588 5.61396 10.0472 6.60898 10.0472 7.64649C10.0472 8.684 10.4588 9.67901 11.1916 10.4126C11.9243 11.1463 12.9182 11.5584 13.9544 11.5584C14.9907 11.5584 15.9845 11.1463 16.7173 10.4126C17.45 9.67901 17.8617 8.684 17.8617 7.64649C17.8617 6.60898 17.45 5.61396 16.7173 4.88033C15.9845 4.1467 14.9907 3.73455 13.9544 3.73455ZM7.81448 7.64649C7.81461 6.68315 8.04087 5.73333 8.47501 4.87363C8.90915 4.01393 9.53902 3.26841 10.3138 2.69721C11.0886 2.12601 11.9866 1.74512 12.9355 1.58524C13.8843 1.42537 14.8574 1.491 15.7762 1.77684C16.6951 2.06267 17.534 2.56071 18.2253 3.23079C18.9165 3.90087 19.4408 4.72422 19.7559 5.63445C20.071 6.54468 20.1679 7.5163 20.039 8.47095C19.9101 9.4256 19.5589 10.3366 19.0138 11.1303L22 14.1213L20.4215 15.7017L17.4352 12.7119C16.5133 13.3471 15.4355 13.7179 14.3184 13.7844C13.2012 13.8508 12.0872 13.6102 11.0966 13.0887C10.1061 12.5672 9.27681 11.7846 8.69834 10.8254C8.11987 9.86619 7.81424 8.76696 7.81448 7.64649ZM0 2.61685H5.58177V4.85225H0V2.61685ZM0 10.4407H5.58177V12.6761H0V10.4407ZM20.0944 18.2646V20.5H0V18.2646H20.0944Z" fill="white"/>
</svg>
