<svg width="55" height="55" viewBox="0 0 55 55" fill="none" xmlns="http://www.w3.org/2000/svg">
<path d="M53.5223 40.0035L53.0754 38.7059C53.0754 38.7059 53.0668 38.6887 53.0582 38.6715C53.0239 38.5769 52.9809 38.491 52.9121 38.4137H52.9036C49.2598 34.3144 50.5661 30.6191 50.6176 30.473C50.7293 30.1894 50.6778 29.8715 50.4973 29.6309C50.3082 29.3988 50.0161 29.2699 49.7153 29.3129L31.0067 31.6332C29.5286 31.8137 28.2825 32.6387 27.5004 33.7988C26.7184 32.6387 25.4723 31.8137 23.9942 31.6332L5.28558 29.3129C4.9934 29.2699 4.69261 29.3988 4.51215 29.6309C4.32308 29.8629 4.27152 30.1809 4.37465 30.4644C4.4348 30.6191 5.74105 34.3144 2.0973 38.4051C2.0973 38.4051 2.09444 38.4108 2.08871 38.4223C2.01996 38.491 1.97699 38.5855 1.94261 38.6715C1.93402 38.6887 1.92543 38.6973 1.92543 38.7059L1.47855 40.0035C1.18636 40.8715 1.29808 41.8254 1.77933 42.6074C2.26918 43.3894 3.07699 43.9051 3.98793 44.0254L21.2184 46.2426C21.9661 46.3371 22.6278 46.7668 23.0145 47.4199L23.2207 47.7723C23.977 49.0269 25.352 49.8004 26.8129 49.8004H28.1879C29.6489 49.8004 31.0239 49.0269 31.7801 47.7723L31.9864 47.4199C32.3731 46.7668 33.0348 46.3371 33.7825 46.2426L51.0129 44.0254C51.9239 43.9051 52.7317 43.3894 53.2215 42.6074C53.7028 41.8254 53.8145 40.8715 53.5223 40.0035ZM28.3598 36.566C28.3598 34.9246 29.5887 33.541 31.2129 33.3348L48.7098 31.1691C48.5036 32.6988 48.5723 35.3887 50.652 38.3277L28.3598 41.2324V36.566ZM6.29105 31.1691L23.7879 33.3348C25.4121 33.541 26.6411 34.9246 26.6411 36.566V41.2324L4.34886 38.3277C6.42855 35.3887 6.4973 32.6988 6.29105 31.1691ZM51.7606 41.6965C51.5457 42.0402 51.1934 42.2637 50.7895 42.3152L33.5676 44.5324C32.2871 44.6957 31.17 45.4262 30.5082 46.5348L30.302 46.8871C29.8551 47.6262 29.0473 48.0816 28.1879 48.0816H26.8129C25.9536 48.0816 25.1457 47.6262 24.6989 46.8871L24.4926 46.5348C23.8309 45.4262 22.7137 44.6957 21.4332 44.5324L4.21136 42.3152C3.80746 42.2637 3.45511 42.0402 3.24027 41.6965C3.02543 41.3527 2.98246 40.9402 3.11136 40.5535L3.32621 39.9262L27.3887 43.0629C27.3887 43.0629 27.4661 43.0715 27.5004 43.0715C27.5348 43.0715 27.5778 43.0715 27.6121 43.0629L51.6746 39.9262L51.8895 40.5535C52.0184 40.9402 51.9754 41.3527 51.7606 41.6965Z" fill="#31323A"/>
<path d="M50.6516 38.3285L28.3594 41.2332V36.5668C28.3594 34.9254 29.5883 33.5418 31.2125 33.3355L48.7094 31.1699C48.5031 32.6996 48.5719 35.3895 50.6516 38.3285Z" fill="#FFF6E0"/>
<path d="M26.6408 36.5668V41.2332L4.34863 38.3285C6.42832 35.3895 6.49707 32.6996 6.29082 31.1699L23.7877 33.3355C25.4119 33.5418 26.6408 34.9254 26.6408 36.5668Z" fill="#FFF6E0"/>
<path d="M51.7598 41.6961C51.545 42.0398 51.1926 42.2633 50.7887 42.3148L33.5668 44.532C32.2864 44.6953 31.1692 45.4258 30.5075 46.5344L30.3012 46.8867C29.8543 47.6258 29.0465 48.0813 28.1872 48.0813H26.8122C25.9528 48.0813 25.145 47.6258 24.6981 46.8867L24.4918 46.5344C23.8301 45.4258 22.7129 44.6953 21.4325 44.532L4.2106 42.3148C3.80669 42.2633 3.45435 42.0398 3.2395 41.6961C3.02466 41.3523 2.98169 40.9398 3.1106 40.5531L3.32544 39.9258L27.3879 43.0625C27.3879 43.0625 27.4653 43.0711 27.4997 43.0711C27.534 43.0711 27.577 43.0711 27.6114 43.0625L51.6739 39.9258L51.8887 40.5531C52.0176 40.9398 51.9747 41.3523 51.7598 41.6961Z" fill="#F39E60"/>
<path d="M44.0941 5.79281C43.991 5.47484 43.7074 5.24281 43.3722 5.20844C43.037 5.16547 42.7105 5.32875 42.5386 5.61234C42.5214 5.63812 40.8113 8.35375 35.105 10.3561C27.723 12.9428 28.823 19.5858 29.2527 21.3131C28.5824 22.3787 27.9722 23.5647 27.4995 24.9053C27.0269 23.5647 26.4167 22.3787 25.7464 21.3131C26.1761 19.5858 27.2761 12.9428 19.8941 10.3561C14.1878 8.35375 12.4777 5.63812 12.4605 5.62094C12.2886 5.32875 11.962 5.16547 11.6269 5.19984C11.2917 5.23422 11.0081 5.46625 10.905 5.79281C10.7933 6.12797 8.25814 14.1545 12.3144 19.0358C14.248 21.3733 17.3331 22.5506 21.4839 22.5506C22.3863 22.5506 23.3488 22.4819 24.3456 22.3702C25.4113 24.0631 26.2792 26.117 26.6488 28.6092C26.7089 29.0303 27.0699 29.3397 27.4995 29.3397C27.9292 29.3397 28.2902 29.0303 28.3503 28.6092C28.7199 26.117 29.5878 24.0631 30.6535 22.3702C31.6503 22.4819 32.6128 22.5506 33.5152 22.5506C37.666 22.5506 40.7511 21.3733 42.6847 19.0358C46.741 14.1545 44.2058 6.12797 44.0941 5.79281ZM24.3456 19.3967C21.2949 15.7616 17.6683 14.292 17.4277 14.1975C16.9894 14.0256 16.491 14.2405 16.3191 14.6873C16.1472 15.1256 16.362 15.6241 16.8089 15.7959C16.8605 15.8217 20.341 17.2397 23.1855 20.7459C18.6995 21.0811 15.4769 20.153 13.6378 17.9444C11.1542 14.9537 11.6699 10.2787 12.1597 7.8725C13.337 9.01547 15.5456 10.6483 19.3269 11.9803C24.0363 13.6303 24.5261 17.2139 24.3456 19.3967ZM41.3613 17.9444C39.5222 20.153 36.2995 21.0811 31.8136 20.7459C34.6581 17.2397 38.1386 15.8217 38.1902 15.7959C38.637 15.6241 38.8519 15.1256 38.68 14.6873C38.5081 14.2405 38.0097 14.0256 37.5714 14.1975C37.3308 14.292 33.7042 15.7616 30.6535 19.3967C30.473 17.2139 30.9628 13.6303 35.6722 11.9803C39.4535 10.6483 41.662 9.01547 42.8394 7.8725C43.3292 10.2787 43.8449 14.9537 41.3613 17.9444Z" fill="#31323A"/>
<path d="M16.3193 14.6859C16.1475 15.1242 16.3623 15.6227 16.8092 15.7945C16.8607 15.8203 20.3412 17.2383 23.1857 20.7445C18.6998 21.0797 15.4771 20.1516 13.6381 17.943C11.1545 14.9523 11.6701 10.2773 12.16 7.87109C13.3373 9.01406 15.5459 10.6469 19.3271 11.9789C24.0365 13.6289 24.5264 17.2125 24.3459 19.3953C21.2951 15.7602 17.6686 14.2906 17.4279 14.1961C16.9896 14.0242 16.4912 14.2391 16.3193 14.6859Z" fill="#88CC69"/>
<path d="M41.3614 17.943C39.5224 20.1516 36.2997 21.0797 31.8138 20.7445C34.6583 17.2383 38.1388 15.8203 38.1903 15.7945C38.6372 15.6227 38.8521 15.1242 38.6802 14.6859C38.5083 14.2391 38.0099 14.0242 37.5716 14.1961C37.331 14.2906 33.7044 15.7602 30.6536 19.3953C30.4731 17.2125 30.963 13.6289 35.6724 11.9789C39.4536 10.6469 41.6622 9.01406 42.8396 7.87109C43.3294 10.2773 43.845 14.9523 41.3614 17.943Z" fill="#88CC69"/>
</svg>
