<svg width="55" height="55" viewBox="0 0 55 55" fill="none" xmlns="http://www.w3.org/2000/svg">
<path d="M49.4568 36.454H45.4178V26.2016C45.4178 25.729 45.0311 25.3423 44.5584 25.3423H37.5717C38.199 24.8095 38.7748 24.1563 39.2732 23.3829C41.8943 19.361 41.9201 13.354 39.3248 10.5352C37.4514 8.50712 34.9076 8.06024 32.1576 9.28055C31.874 9.40946 31.5818 9.50399 31.2811 9.57274C31.3412 8.86805 31.3412 8.22352 31.2811 7.63915C31.9342 7.87118 32.7248 8.07743 33.5584 8.07743C34.0654 8.07743 34.5897 8.00009 35.0967 7.81102C37.5803 6.8829 38.5514 3.70321 38.5857 3.56571C38.6975 3.19618 38.5514 2.80087 38.2248 2.59462C38.1045 2.51727 35.2857 0.746961 32.8107 1.66649C31.5904 2.12196 30.7396 3.12743 30.1811 4.04696C29.4334 2.79227 28.5826 2.22509 28.5139 2.18212C28.11 1.9243 27.5771 2.04462 27.3279 2.43993C27.0701 2.84384 27.1904 3.37665 27.5857 3.62587C27.6115 3.64305 30.0006 5.2329 29.5365 9.61571C29.1498 9.54696 28.7717 9.44384 28.4107 9.28055C25.6607 8.06024 23.117 8.50712 21.2436 10.5352C18.6482 13.354 18.6654 19.361 21.2951 23.3829C21.7936 24.1649 22.3779 24.8095 23.0053 25.3423H18.4678C14.9271 25.3423 12.0482 28.2212 12.0482 31.7532C12.0482 33.6095 12.8475 35.2852 14.1107 36.454H13.2514C8.5248 36.454 4.6748 40.2954 4.6748 45.022C4.6748 49.7485 8.5248 53.5985 13.2514 53.5985H49.4482C49.9209 53.5985 50.3076 53.2118 50.3076 52.7391V37.3134C50.3076 36.8407 49.9209 36.454 49.4482 36.454H49.4568ZM33.4209 3.28212C34.5467 2.86102 35.9217 3.35087 36.7037 3.7204C36.3514 4.50243 35.6381 5.7829 34.5123 6.20399C33.3779 6.62509 32.0029 6.12665 31.2295 5.76571C31.5818 4.97509 32.2951 3.70321 33.4209 3.28212ZM22.7389 22.4462C20.5818 19.1376 20.4787 13.9126 22.5154 11.704C23.8904 10.2087 25.635 9.92509 27.7146 10.8532C28.5053 11.2056 29.3561 11.3774 30.1982 11.3946C30.2326 11.3946 30.2584 11.3946 30.2842 11.3946C30.2928 11.3946 30.3014 11.3946 30.31 11.3946C31.1779 11.3946 32.0459 11.2141 32.8537 10.8532C34.9334 9.92509 36.6865 10.2087 38.0615 11.704C40.0982 13.9126 39.9865 19.1376 37.8381 22.4462C36.9357 23.8298 35.4576 25.2563 33.1631 25.3423H33.06C32.3123 25.3509 31.4873 25.2306 30.5678 24.9212C30.4732 24.8868 30.3787 24.8696 30.2842 24.8696C30.1897 24.8696 30.1037 24.8868 30.0092 24.9212C29.0811 25.2306 28.2475 25.3595 27.4998 25.3423H27.4139C25.1193 25.2563 23.6412 23.8298 22.7389 22.4462ZM13.7756 31.7532C13.7756 29.1665 15.8811 27.061 18.4764 27.061H43.699V30.8938H18.2443C17.7717 30.8938 17.385 31.2806 17.385 31.7532C17.385 32.2259 17.7717 32.6126 18.2443 32.6126H43.699V36.454H18.4764C15.8811 36.454 13.7756 34.3485 13.7756 31.7532ZM48.5975 44.1626H12.9162C12.4436 44.1626 12.0568 44.5493 12.0568 45.022C12.0568 45.4946 12.4436 45.8813 12.9162 45.8813H48.5975V51.8798H13.26C9.47871 51.8798 6.40215 48.8032 6.40215 45.022C6.40215 41.2407 9.47871 38.1727 13.26 38.1727H48.5975V44.1626Z" fill="#31323A"/>
<path d="M36.7037 3.72156C36.3514 4.50359 35.6381 5.78406 34.5123 6.20515C33.3779 6.62625 32.0029 6.12781 31.2295 5.76687C31.5818 4.97625 32.2951 3.70437 33.4209 3.28328C34.5467 2.86218 35.9217 3.35203 36.7037 3.72156Z" fill="#88CC69"/>
<path d="M37.8387 22.4465C36.9364 23.8301 35.4582 25.2566 33.1637 25.3426H33.0606C32.3129 25.3511 31.4879 25.2308 30.5684 24.9215C30.4739 24.8871 30.3793 24.8699 30.2848 24.8699C30.1903 24.8699 30.1043 24.8871 30.0098 24.9215C29.0817 25.2308 28.2481 25.3597 27.5004 25.3426H27.4145C25.12 25.2566 23.6418 23.8301 22.7395 22.4465C20.5825 19.1379 20.4793 13.9129 22.5161 11.7043C23.8911 10.209 25.6356 9.92537 27.7153 10.8535C28.5059 11.2058 29.3567 11.3777 30.1989 11.3949C30.2332 11.3949 30.259 11.3949 30.2848 11.3949C30.2934 11.3949 30.302 11.3949 30.3106 11.3949C31.1786 11.3949 32.0465 11.2144 32.8543 10.8535C34.934 9.92537 36.6871 10.209 38.0621 11.7043C40.0989 13.9129 39.9871 19.1379 37.8387 22.4465Z" fill="#FF7079"/>
<path d="M17.3848 31.7547C17.3848 32.2359 17.7715 32.6141 18.2441 32.6141H43.6988V36.4555H18.4762C15.8809 36.4555 13.7754 34.35 13.7754 31.7547C13.7754 29.1594 15.8809 27.0625 18.4762 27.0625H43.6988V30.8953H18.2441C17.7715 30.8953 17.3848 31.282 17.3848 31.7547Z" fill="#FFF6E0"/>
<path d="M12.057 45.023C12.057 45.5043 12.4437 45.8824 12.9164 45.8824H48.5977V51.8809H13.2602C9.47891 51.8809 6.40234 48.8043 6.40234 45.023C6.40234 41.2418 9.47891 38.1738 13.2602 38.1738H48.5977V44.1637H12.9164C12.4437 44.1637 12.057 44.5504 12.057 45.023Z" fill="#FFF6E0"/>
</svg>
