<svg width="55" height="55" viewBox="0 0 55 55" fill="none" xmlns="http://www.w3.org/2000/svg">
<path d="M50.3939 14.6773C50.3939 10.1313 46.7072 6.43594 42.1697 6.43594C41.0611 6.43594 39.9783 6.65938 38.9729 7.08906C38.2854 3.98672 35.4838 1.64062 32.201 1.64062C29.3908 1.64062 26.8986 3.36797 25.8244 5.85156C24.5525 4.61406 22.8166 3.88359 20.9947 3.88359C17.5314 3.88359 14.6525 6.43594 14.1283 9.76172C13.7072 9.69297 13.2775 9.65859 12.8393 9.65859C8.30176 9.65859 4.60645 13.3539 4.60645 17.8914C4.60645 21.3891 6.75488 24.4227 9.96035 25.6C9.59941 26.4594 9.41895 27.3961 9.41895 28.3328C9.41895 32.2773 12.6244 35.4828 16.5689 35.4828C18.2447 35.4828 19.8432 34.907 21.1064 33.8586C22.4643 36.3594 25.0939 37.9664 28.0244 37.9664C30.9549 37.9664 33.6104 36.3422 34.9596 33.8156C36.4549 35.1906 38.4057 35.9555 40.4768 35.9555C45.0229 35.9555 48.7182 32.2602 48.7182 27.7141C48.7182 25.4797 47.8072 23.3656 46.226 21.8273C48.7697 20.3922 50.3939 17.668 50.3939 14.6773ZM46.9994 27.7141C46.9994 31.3148 44.0775 34.2367 40.4768 34.2367C38.4658 34.2367 36.601 33.3258 35.3635 31.7359C35.1658 31.4781 34.8479 31.3578 34.5299 31.418C34.2205 31.4695 33.9627 31.693 33.8682 32.0023C33.0518 34.5375 30.6971 36.2477 28.0244 36.2477C25.3518 36.2477 23.0486 34.5805 22.2064 32.0969C22.1033 31.7961 21.8541 31.5812 21.5447 31.5297C21.4932 31.5125 21.4416 31.5125 21.39 31.5125C21.1408 31.5125 20.8916 31.6242 20.7283 31.8219C19.6971 33.0594 18.1846 33.7641 16.5689 33.7641C13.5697 33.7641 11.1377 31.332 11.1377 28.3328C11.1377 27.3359 11.4041 26.3648 11.9197 25.5227C12.0658 25.282 12.0916 24.9898 11.9799 24.7406C11.8768 24.4828 11.6533 24.2938 11.3783 24.2336C8.40488 23.5547 6.3252 20.9508 6.3252 17.8914C6.3252 14.2992 9.24707 11.3773 12.8393 11.3773C13.4752 11.3773 14.0854 11.4633 14.6611 11.6352C14.9189 11.7125 15.2025 11.6695 15.4174 11.5063C15.6408 11.343 15.7697 11.0938 15.7697 10.8188C15.7783 7.93984 18.1158 5.60234 20.9947 5.60234C22.8166 5.60234 24.5268 6.57344 25.4549 8.12891C25.6439 8.44688 26.0049 8.61016 26.3572 8.53281C26.7182 8.46406 26.9932 8.18047 27.0447 7.81953C27.4143 5.27578 29.6314 3.35938 32.201 3.35938C35.0025 3.35938 37.3486 5.63672 37.4174 8.43828C37.4174 8.74766 37.5979 9.03125 37.8643 9.17734C38.1393 9.32344 38.4744 9.31484 38.7322 9.14297C39.7549 8.49844 40.9494 8.15469 42.1697 8.15469C45.7619 8.15469 48.6752 11.0766 48.6752 14.6773C48.6752 17.4359 46.9307 19.9023 44.3354 20.8133C44.026 20.9164 43.8025 21.1914 43.7682 21.5094C43.7252 21.8359 43.8627 22.1539 44.1377 22.3344C45.9252 23.5461 46.9994 25.557 46.9994 27.7141Z" fill="#31323A"/>
<path d="M44.1377 22.3344C43.8627 22.1539 43.7252 21.8359 43.7682 21.5094C43.8025 21.1914 44.026 20.9164 44.3354 20.8133C46.9307 19.9023 48.6752 17.4359 48.6752 14.6773C48.6752 11.0766 45.7619 8.15469 42.1697 8.15469C40.9494 8.15469 39.7549 8.49844 38.7322 9.14297C38.4744 9.31484 38.1393 9.32344 37.8643 9.17734C37.5979 9.03125 37.4174 8.74766 37.4174 8.43828C37.3486 5.63672 35.0025 3.35938 32.201 3.35938C29.6314 3.35938 27.4143 5.27578 27.0447 7.81953C26.9932 8.18047 26.7182 8.46406 26.3572 8.53281C26.0049 8.61016 25.6439 8.44688 25.4549 8.12891C24.5268 6.57344 22.8166 5.60234 20.9947 5.60234C18.1158 5.60234 15.7783 7.93984 15.7697 10.8188C15.7697 11.0938 15.6408 11.343 15.4174 11.5063C15.2025 11.6695 14.9189 11.7125 14.6611 11.6352C14.0854 11.4633 13.4752 11.3773 12.8393 11.3773C9.24707 11.3773 6.3252 14.2992 6.3252 17.8914C6.3252 20.9508 8.40488 23.5547 11.3783 24.2336C11.6533 24.2938 11.8768 24.4828 11.9799 24.7406C12.0916 24.9898 12.0658 25.282 11.9197 25.5227C11.4041 26.3648 11.1377 27.3359 11.1377 28.3328C11.1377 31.332 13.5697 33.7641 16.5689 33.7641C18.1846 33.7641 19.6971 33.0594 20.7283 31.8219C20.8916 31.6242 21.1408 31.5125 21.39 31.5125C21.4416 31.5125 21.4932 31.5125 21.5447 31.5297C21.8541 31.5812 22.1033 31.7961 22.2064 32.0969C23.0486 34.5805 25.3861 36.2477 28.0244 36.2477C30.6627 36.2477 33.0518 34.5375 33.8682 32.0023C33.9627 31.693 34.2205 31.4695 34.5299 31.418C34.8479 31.3578 35.1658 31.4781 35.3635 31.7359C36.601 33.3258 38.4658 34.2367 40.4768 34.2367C44.0775 34.2367 46.9994 31.3148 46.9994 27.7141C46.9994 25.557 45.9252 23.5461 44.1377 22.3344ZM32.5361 21.9133C32.2525 22.1883 32.0978 22.5234 32.0978 22.8672V24.5859C32.0978 25.3164 31.6768 25.9523 31.0666 26.2617V29.1148C31.0666 30.5844 29.8635 31.7789 28.3939 31.7789H27.2939C25.8244 31.7789 24.6299 30.5844 24.6299 29.1148V26.2617C24.0111 25.9523 23.59 25.3164 23.59 24.5859V22.8844C23.59 22.532 23.4354 22.1797 23.1432 21.8875C21.6307 20.4008 20.9346 18.3383 21.2096 16.2242C21.6135 13.2336 24.0799 10.8187 27.0791 10.4836C28.9869 10.2688 30.8861 10.8703 32.3041 12.1422C33.7221 13.4055 34.5385 15.2273 34.5385 17.1352C34.5385 19.043 33.8252 20.6414 32.5361 21.9133Z" fill="#C9E6F0"/>
<path d="M17.11 37.4941C14.3342 37.4941 12.0654 39.7543 12.0654 42.5387C12.0654 45.323 14.3342 47.5832 17.11 47.5832C19.8857 47.5832 22.1545 45.3145 22.1545 42.5387C22.1545 39.7629 19.8943 37.4941 17.11 37.4941ZM17.11 45.8645C15.2795 45.8645 13.7842 44.3691 13.7842 42.5387C13.7842 40.7082 15.2795 39.2129 17.11 39.2129C18.9404 39.2129 20.4357 40.6996 20.4357 42.5387C20.4357 44.3777 18.949 45.8645 17.11 45.8645Z" fill="#31323A"/>
<path d="M20.4357 42.5387C20.4357 44.3691 18.949 45.8645 17.11 45.8645C15.2709 45.8645 13.7842 44.3691 13.7842 42.5387C13.7842 40.7082 15.2795 39.2129 17.11 39.2129C18.9404 39.2129 20.4357 40.6996 20.4357 42.5387Z" fill="#C9E6F0"/>
<path d="M8.43066 45.6934C6.3166 45.6934 4.60645 47.4121 4.60645 49.5262C4.60645 51.6402 6.3166 53.359 8.43066 53.359C10.5447 53.359 12.2635 51.6402 12.2635 49.5262C12.2635 47.4121 10.5447 45.6934 8.43066 45.6934ZM8.43066 51.6402C7.27051 51.6402 6.3252 50.6863 6.3252 49.5262C6.3252 48.366 7.27051 47.4121 8.43066 47.4121C9.59082 47.4121 10.5447 48.366 10.5447 49.5262C10.5447 50.6863 9.59941 51.6402 8.43066 51.6402Z" fill="#31323A"/>
<path d="M10.5447 49.5262C10.5447 50.6863 9.59941 51.6402 8.43066 51.6402C7.26191 51.6402 6.3252 50.6863 6.3252 49.5262C6.3252 48.366 7.27051 47.4121 8.43066 47.4121C9.59082 47.4121 10.5447 48.366 10.5447 49.5262Z" fill="#C9E6F0"/>
<path d="M32.3038 12.1427C30.8858 10.8709 28.9866 10.2693 27.0788 10.4841C24.0796 10.8193 21.6132 13.2341 21.2092 16.2248C20.9342 18.3388 21.6303 20.4013 23.1428 21.8881C23.435 22.1802 23.5897 22.5326 23.5897 22.8849V24.5865C23.5897 25.317 24.0108 25.9529 24.6296 26.2623V29.1154C24.6296 30.5849 25.8241 31.7795 27.2936 31.7795H28.3936C29.8632 31.7795 31.0663 30.5849 31.0663 29.1154V26.2623C31.6764 25.9529 32.0975 25.317 32.0975 24.5865V22.8677C32.0975 22.524 32.2522 22.1888 32.5358 21.9138C33.8249 20.642 34.5381 18.949 34.5381 17.1357C34.5381 15.2279 33.7217 13.406 32.3038 12.1427ZM28.3936 30.0607H27.2936C26.778 30.0607 26.3569 29.6482 26.3483 29.1326H29.3389C29.3303 29.6482 28.9178 30.0607 28.3936 30.0607ZM29.3475 27.4138H26.3483V26.4771H29.3475V27.4138ZM31.3241 20.6849C30.7139 21.2865 30.3788 22.0599 30.3788 22.8677V24.5865C30.3788 24.681 30.3014 24.7584 30.2069 24.7584H25.4889C25.3858 24.7584 25.3085 24.681 25.3085 24.5865V22.8849C25.3085 22.0685 24.9647 21.2779 24.346 20.6677C23.2288 19.5591 22.7046 18.0295 22.9194 16.4482C23.2116 14.231 25.0421 12.4349 27.2678 12.1857C27.4655 12.1685 27.6632 12.1599 27.8522 12.1599C29.0811 12.1599 30.2327 12.5982 31.1608 13.4232C32.2092 14.3685 32.8194 15.7177 32.8194 17.1357C32.8194 18.5537 32.2866 19.7396 31.3241 20.6849Z" fill="#31323A"/>
<path d="M29.3479 26.4766H26.3486V27.4133H29.3479V26.4766Z" fill="#DEA254"/>
<path d="M29.3393 29.1328C29.3307 29.6484 28.9182 30.0609 28.3939 30.0609H27.2939C26.7783 30.0609 26.3572 29.6484 26.3486 29.1328H29.3393Z" fill="#DEA254"/>
<path d="M32.8194 17.1359C32.8194 18.4852 32.2866 19.7398 31.3241 20.6852C30.7139 21.2867 30.3787 22.0602 30.3787 22.868V24.5867C30.3787 24.6813 30.3014 24.7586 30.2069 24.7586H25.4889C25.3858 24.7586 25.3084 24.6813 25.3084 24.5867V22.8852C25.3084 22.0687 24.9647 21.2781 24.3459 20.668C23.2287 19.5594 22.7045 18.0297 22.9194 16.4484C23.2116 14.2312 25.042 12.4352 27.2678 12.1859C27.4655 12.1688 27.6631 12.1602 27.8522 12.1602C29.0811 12.1602 30.2326 12.5984 31.1608 13.4234C32.2092 14.3688 32.8194 15.718 32.8194 17.1359Z" fill="#FCD67B"/>
</svg>
