<svg width="51" height="51" viewBox="0 0 51 51" fill="none" xmlns="http://www.w3.org/2000/svg">
<path d="M48.3594 37.6179H35.4687C33.5781 37.6179 32.1172 36.6726 31.3437 34.9538C30.9141 34.0944 30.7422 33.0632 30.7422 31.946V30.2272C30.7422 27.6491 31.1719 24.1257 33.4062 22.0632L33.4922 21.9772C36.0703 19.6569 37.5312 16.3913 37.5312 12.9538C37.5312 9.51631 36.0703 6.25069 33.4922 3.93037C30.9141 1.696 27.4766 0.578812 24.0391 0.922562C18.8828 1.61006 14.5859 5.64912 13.6406 10.8913C12.8672 15.1022 14.3281 19.3132 17.5078 22.0632L17.5937 22.1491C17.5937 22.1491 17.6797 22.2351 17.7656 22.321C19.4844 24.0397 20.4297 26.7897 20.4297 30.3991V32.1179C20.4297 33.2351 20.2578 34.2663 19.8281 35.1257C18.9687 36.9304 17.5938 37.7897 15.6172 37.7897H2.72656C1.52344 37.7897 0.492188 38.821 0.492188 40.0241V43.8054C0.492188 45.0085 1.52344 46.0397 2.72656 46.0397H2.89844V47.5866C2.89844 49.0476 4.01562 50.1647 5.47656 50.1647H45.6953C47.0703 50.1647 48.2734 49.0476 48.2734 47.5866V46.0397H48.4453C49.6484 46.0397 50.6797 45.0085 50.6797 43.8054V40.0241C50.5937 38.6491 49.5625 37.6179 48.3594 37.6179ZM21.2891 35.7272C21.8047 34.6101 22.0625 33.4069 22.0625 32.0319V30.3132C22.0625 26.1882 21.0312 23.0944 18.8828 21.0319L18.625 20.7741C15.875 18.3679 14.6719 14.7585 15.2734 11.1491C16.0469 6.68037 19.7422 3.24287 24.2969 2.72725C27.3047 2.3835 30.1406 3.32881 32.375 5.30537C34.5234 7.28194 35.8125 10.0319 35.8125 13.0397C35.8125 15.9616 34.5234 18.7976 32.2891 20.7741C32.2031 20.8601 32.2031 20.8601 32.1172 20.946C29.4531 23.3522 28.8516 27.3913 28.8516 30.3132V32.0319C28.8516 33.4069 29.1094 34.6101 29.625 35.7272C29.9687 36.4147 30.3984 37.1022 31 37.7038H19.8281C20.5156 37.0163 20.9453 36.3288 21.2891 35.7272ZM46.4687 47.4147C46.4687 47.8444 46.125 48.2741 45.6094 48.2741H5.39062C4.96094 48.2741 4.53125 47.9304 4.53125 47.4147V45.8679H46.4687V47.4147ZM48.875 43.6335C48.875 43.8913 48.6172 44.1491 48.3594 44.1491H47.3281H3.67187H2.64062C2.38281 44.1491 2.125 43.8913 2.125 43.6335V39.8522C2.125 39.5944 2.38281 39.3366 2.64062 39.3366H48.3594C48.6172 39.3366 48.875 39.5944 48.875 39.8522V43.6335Z" fill="#31323A"/>
<path d="M35.8127 13.0401C35.8127 10.1182 34.5237 7.28226 32.3752 5.3057C30.1409 3.32914 27.3049 2.38383 24.2971 2.72758C19.8284 3.2432 16.1331 6.6807 15.2737 11.1495C14.6721 14.7588 15.8752 18.3682 18.6252 20.7745L18.8831 21.0323C20.9456 23.0948 22.0627 26.1885 22.0627 30.3135V32.0323C22.0627 33.4073 21.8049 34.6104 21.2893 35.7276C20.9456 36.4151 20.5159 37.1026 19.9143 37.7041H31.0862C30.4846 37.1026 30.0549 36.4151 29.7112 35.7276C29.1956 34.6104 28.9377 33.4073 28.9377 32.0323V30.3135C28.9377 27.3916 29.5393 23.3526 32.2034 20.9463C32.2034 20.9463 32.2893 20.8604 32.3752 20.7745C34.5237 18.7979 35.8127 15.962 35.8127 13.0401ZM32.3752 10.376C32.2893 10.462 32.1174 10.462 32.0315 10.462C31.6877 10.462 31.344 10.2901 31.2581 9.94633C30.4846 8.14164 28.8518 6.85258 26.9612 6.42289C26.5315 6.33695 26.1877 5.82133 26.2737 5.39164C26.3596 4.96195 26.8752 4.6182 27.3049 4.70414C29.7112 5.21976 31.7737 6.93851 32.8049 9.25883C33.0627 9.68851 32.8049 10.2041 32.3752 10.376Z" fill="#F0997D"/>
<path d="M46.4688 45.8672V47.4141C46.4688 47.8437 46.125 48.2734 45.6094 48.2734H5.39063C4.96094 48.2734 4.53125 47.9297 4.53125 47.4141V45.8672H46.4688Z" fill="#818595"/>
<path d="M48.875 39.8516V43.6328C48.875 43.8906 48.6172 44.1484 48.3594 44.1484H47.3281H3.67187H2.64062C2.38281 44.1484 2.125 43.8906 2.125 43.6328V39.8516C2.125 39.5938 2.38281 39.3359 2.64062 39.3359H48.3594C48.6172 39.3359 48.875 39.5938 48.875 39.8516Z" fill="#D3756B"/>
<path d="M32.3746 10.3765C32.2886 10.4625 32.1168 10.4625 32.0308 10.4625C31.6871 10.4625 31.3433 10.2906 31.2574 9.94685C30.484 8.14216 28.8511 6.8531 26.9605 6.42341C26.5308 6.33748 26.1871 5.82185 26.273 5.39216C26.359 4.96248 26.8746 4.61873 27.3043 4.70466C29.7105 5.22029 31.773 6.93904 32.8043 9.25935C33.0621 9.68904 32.8043 10.2047 32.3746 10.3765Z" fill="#31323A"/>
</svg>
