<svg width="55" height="55" viewBox="0 0 55 55" fill="none" xmlns="http://www.w3.org/2000/svg">
<path d="M35.5354 3.07695C35.5354 3.07695 35.5182 3.05977 35.501 3.05117C35.4409 3.0168 35.3721 2.97383 35.3034 2.93945L32.9831 3.96211C31.0753 3.41211 28.9096 3.13711 26.5292 3.13711C17.2049 3.13711 9.61666 10.7254 9.61666 20.0496C9.61666 21.8371 9.89166 23.6074 10.4503 25.2918C10.5104 25.4809 10.5018 25.6871 10.4331 25.8676L7.81198 32.5535C7.72604 32.7598 7.80338 32.923 7.85495 33.0004C7.89791 33.0691 8.01823 33.2152 8.25026 33.2238L10.9659 33.3184C11.3612 33.3355 11.6964 33.6105 11.7823 33.9973L13.3979 41.4309C13.7417 43.0207 15.2198 44.0691 16.8268 43.8887L26.3315 42.7887C26.6237 42.6684 28.5143 41.7488 29.6745 37.8902C29.812 37.4348 30.2932 37.177 30.7487 37.3144C31.2042 37.452 31.462 37.9332 31.3245 38.3887C29.7604 43.5621 26.8815 44.4215 26.7612 44.4559C26.7182 44.473 26.6753 44.4816 26.6237 44.4816L23.7362 44.8168C24.6643 46.3895 25.8589 49.277 24.7331 52.4824H23.719V53.5824H39.8924V52.4824H38.8956C37.2971 44.7223 39.2737 39.4199 41.3362 34.3754C42.5651 34.0918 43.3815 33.8941 43.3815 33.8941C43.3815 33.8941 43.3901 33.8684 43.4073 33.8254C43.9401 32.5277 51.8635 12.3066 35.5354 3.07695Z" fill="#FFCDB2"/>
<path d="M35.7846 4.06484C35.6042 4.50312 35.0971 4.70937 34.6589 4.52891C34.1261 4.31406 33.5675 4.125 32.9831 3.96172C31.0753 3.41172 28.9096 3.13672 26.5292 3.13672C17.205 3.13672 9.61667 10.725 9.61667 20.0492C9.61667 21.8367 9.89167 23.607 10.4503 25.2914C10.5104 25.4805 10.5018 25.6867 10.4331 25.8672L7.81199 32.5531C7.72605 32.7594 7.80339 32.9227 7.85496 33C7.89793 33.0688 8.01824 33.2148 8.25027 33.2234L10.9659 33.318C11.3612 33.3352 11.6964 33.6102 11.7823 33.9969L13.3979 41.4305C13.7417 43.0203 15.2198 44.0687 16.8268 43.8883L26.3315 42.7883C26.6237 42.668 28.5143 41.7484 29.6745 37.8898C29.812 37.4344 30.2932 37.1766 30.7487 37.3141C31.2042 37.4516 31.462 37.9328 31.3245 38.3883C29.7604 43.5617 26.8815 44.4211 26.7612 44.4555C26.7182 44.4727 26.6753 44.4812 26.6237 44.4812L23.7362 44.8164C24.6643 46.3891 25.8589 49.2766 24.7331 52.482C24.6729 52.6797 24.5956 52.8687 24.5096 53.0664C24.3636 53.393 24.0542 53.582 23.719 53.582C23.6073 53.582 23.487 53.5562 23.3753 53.5133C22.937 53.3242 22.7393 52.8172 22.9284 52.3789C24.3721 49.0789 22.5589 46.0453 21.837 45.0398L17.0245 45.5898C16.8354 45.6156 16.6378 45.6242 16.4487 45.6242C14.1885 45.6242 12.212 44.0602 11.7136 41.7914L10.244 35.0109L8.18152 34.9422C7.46824 34.9164 6.80652 34.5383 6.41121 33.9453C6.02449 33.3437 5.94714 32.5875 6.21355 31.9258L8.72292 25.5234C8.17292 23.7617 7.89792 21.9141 7.89792 20.0492C7.89792 9.77109 16.2511 1.41797 26.5292 1.41797C29.8636 1.41797 32.8198 1.93359 35.3034 2.93906C35.3721 2.97344 35.4409 3.01641 35.5011 3.05078C35.5182 3.05937 35.5268 3.06797 35.5354 3.07656C35.819 3.30859 35.9221 3.70391 35.7846 4.06484Z" fill="#31323A"/>
<path d="M43.4075 33.8245L43.3817 33.8932L43.184 34.3831C41.0958 39.4706 38.9473 44.73 40.6661 52.5331C40.7606 52.9972 40.4684 53.4612 40.0044 53.5643C39.97 53.5729 39.927 53.5729 39.8926 53.5729C39.8669 53.5815 39.8497 53.5815 39.8239 53.5815C39.4286 53.5815 39.0676 53.3065 38.9817 52.9026C38.9473 52.7651 38.9215 52.619 38.8958 52.4815C37.2973 44.7214 39.2739 39.419 41.3364 34.3745C41.4223 34.1597 41.5083 33.9448 41.5942 33.73L41.7919 33.2401C41.9723 32.8018 42.4794 32.5956 42.9176 32.7675C43.3301 32.9393 43.5364 33.4034 43.4075 33.8245Z" fill="#31323A"/>
<path d="M48.082 5.86133H32.132C30.2414 5.86133 28.7031 7.39961 28.7031 9.29023V27.8184C28.7031 29.709 30.2414 31.2473 32.132 31.2473H48.082C48.5547 31.2473 48.9414 30.8605 48.9414 30.3879V6.7207C48.9414 6.24805 48.5633 5.86133 48.082 5.86133ZM32.0977 29.5199C31.1695 29.5027 30.4219 28.7465 30.4219 27.8184V12.2465C30.9117 12.5387 31.4875 12.7105 32.0977 12.7191V29.5199ZM47.2227 29.5285H33.8164V12.7191H47.2227V29.5285ZM47.2227 11.0004H32.132C31.1867 11.0004 30.4219 10.2355 30.4219 9.29023C30.4219 8.34492 31.1867 7.58008 32.132 7.58008H47.2227V11.0004Z" fill="#31323A"/>
<path d="M32.0977 12.7188V29.5195C31.1695 29.5023 30.4219 28.7461 30.4219 27.818V12.2461C30.9117 12.5383 31.4875 12.7102 32.0977 12.7188Z" fill="#B67748"/>
<path d="M47.2227 7.58008V11.0004H32.132C31.1867 11.0004 30.4219 10.2355 30.4219 9.29024C30.4219 8.34492 31.1867 7.58008 32.132 7.58008H47.2227Z" fill="#FFF6E0"/>
<path d="M33.8164 12.7188V29.5281H47.2227V12.7188H33.8164ZM44.8078 19.4305C44.8078 19.9031 44.4297 20.2898 43.9484 20.2898H36.9789C36.4977 20.2898 36.1195 19.9031 36.1195 19.4305V15.3312C36.1195 14.8586 36.4977 14.4719 36.9789 14.4719H43.9484C44.4297 14.4719 44.8078 14.8586 44.8078 15.3312V19.4305Z" fill="#F39E60"/>
<path d="M43.948 14.4727H36.9785C36.4973 14.4727 36.1191 14.8594 36.1191 15.332V19.4313C36.1191 19.9039 36.4973 20.2906 36.9785 20.2906H43.948C44.4293 20.2906 44.8074 19.9039 44.8074 19.4313V15.332C44.8074 14.8594 44.4293 14.4727 43.948 14.4727ZM43.0887 18.5719H37.8379V16.1914H43.0887V18.5719Z" fill="#31323A"/>
<path d="M43.0887 16.1914H37.8379V18.5719H43.0887V16.1914Z" fill="#FAD8BF"/>
</svg>
