<svg width="55" height="55" viewBox="0 0 55 55" fill="none" xmlns="http://www.w3.org/2000/svg">
<path d="M43.8281 6.35938H11.2578C10.8281 6.35938 10.3984 6.78906 10.3984 7.21875V10.9141H10.0547C9.625 10.9141 9.19531 11.3437 9.19531 11.7734C9.19531 12.2031 9.625 12.6328 10.0547 12.6328H10.3984V18.5625H10.0547C9.625 18.5625 9.19531 18.9063 9.19531 19.4219C9.19531 19.9375 9.625 20.2813 10.0547 20.2813H10.3984V26.2109H10.0547C9.625 26.2109 9.19531 26.6406 9.19531 27.0703C9.19531 27.5859 9.625 27.9297 10.0547 27.9297H10.3984V33.8594H10.0547C9.625 33.8594 9.19531 34.2891 9.19531 34.7188C9.19531 35.2344 9.625 35.5781 10.0547 35.5781H10.3984V41.5078H10.0547C9.625 41.5078 9.19531 41.8516 9.19531 42.3672C9.19531 42.7969 9.625 43.2266 10.0547 43.2266H10.3984V47.3516C10.3984 47.7812 10.8281 48.2109 11.2578 48.2109H43.8281C44.2578 48.2109 44.6875 47.7812 44.6875 47.3516V7.21875C44.6875 6.78906 44.3438 6.35938 43.8281 6.35938ZM42.9688 46.5781H12.1172V43.3125H12.8047C13.3203 43.3125 13.6641 42.8828 13.6641 42.4531C13.6641 41.9375 13.3203 41.5938 12.8047 41.5938H12.1172V35.6641H12.8047C13.3203 35.6641 13.6641 35.3203 13.6641 34.8047C13.6641 34.375 13.3203 33.9453 12.8047 33.9453H12.1172V28.0156H12.8047C13.3203 28.0156 13.6641 27.6719 13.6641 27.1562C13.6641 26.7266 13.3203 26.2969 12.8047 26.2969H12.1172V20.3672H12.8047C13.3203 20.3672 13.6641 20.0234 13.6641 19.5078C13.6641 18.9922 13.3203 18.6484 12.8047 18.6484H12.1172V12.7188H12.8047C13.3203 12.7188 13.6641 12.2891 13.6641 11.8594C13.6641 11.4297 13.3203 11 12.8047 11H12.1172V8.07812H42.9688V46.5781Z" fill="#31323A"/>
<path d="M40.9062 42.4531C40.9062 42.8828 40.5625 43.3125 40.0469 43.3125H17.0156C16.5859 43.3125 16.1562 42.8828 16.1562 42.4531C16.1562 41.9375 16.5859 41.5938 17.0156 41.5938H40.1328C40.5625 41.5938 40.9062 41.9375 40.9062 42.4531Z" fill="#31323A"/>
<path d="M40.9062 36.0938C40.9062 36.5234 40.5625 36.9531 40.0469 36.9531H17.0156C16.5859 36.9531 16.1562 36.5234 16.1562 36.0938C16.1562 35.6641 16.5859 35.2344 17.0156 35.2344H40.1328C40.5625 35.2344 40.9062 35.6641 40.9062 36.0938Z" fill="#31323A"/>
<path d="M40.9062 29.8203C40.9062 30.25 40.5625 30.6797 40.0469 30.6797H17.0156C16.5859 30.6797 16.1562 30.25 16.1562 29.8203C16.1562 29.3906 16.5859 28.9609 17.0156 28.9609H40.1328C40.5625 28.9609 40.9062 29.3906 40.9062 29.8203Z" fill="#31323A"/>
<path d="M40.9062 23.5469C40.9062 24.0625 40.5625 24.4062 40.0469 24.4062H34.6328C34.2031 24.4062 33.7734 24.0625 33.7734 23.5469C33.7734 23.0312 34.2031 22.6875 34.6328 22.6875H40.0469C40.5625 22.6875 40.9062 23.0312 40.9062 23.5469Z" fill="#31323A"/>
<path d="M40.9062 17.2734C40.9062 17.7031 40.5625 18.1328 40.0469 18.1328H24.9219C24.4062 18.1328 24.0625 17.7031 24.0625 17.2734C24.0625 16.8438 24.4062 16.4141 24.9219 16.4141H40.1328C40.5625 16.4141 40.9062 16.7578 40.9062 17.2734Z" fill="#31323A"/>
<path d="M32.8281 23.5469C32.8281 24.0625 32.3984 24.4062 31.9688 24.4062H17.0156C16.5859 24.4062 16.1562 24.0625 16.1562 23.5469C16.1562 23.0312 16.5859 22.6875 17.0156 22.6875H31.9688C32.3984 22.6875 32.8281 23.0312 32.8281 23.5469Z" fill="#31323A"/>
<path d="M22.3438 17.2734C22.3438 17.7031 22 18.1328 21.4844 18.1328H17.0156C16.5859 18.1328 16.1562 17.7031 16.1562 17.2734C16.1562 16.8438 16.5859 16.4141 17.0156 16.4141H21.4844C22 16.4141 22.3438 16.7578 22.3438 17.2734Z" fill="#31323A"/>
<path d="M31.2813 11.7734C31.2813 12.2031 30.8516 12.6328 30.4219 12.6328H17.2734C16.8438 12.6328 16.4141 12.2031 16.4141 11.7734C16.4141 11.3438 16.8438 10.9141 17.2734 10.9141H30.4219C30.8516 10.9141 31.2813 11.3438 31.2813 11.7734Z" fill="#31323A"/>
<path d="M45.4609 1.97656H9.53906C7.73438 1.97656 6.35938 3.4375 6.35938 5.24219V49.8438C6.35938 51.6484 7.82031 53.1094 9.625 53.1094H45.5469C47.3516 53.1094 48.8125 51.6484 48.8125 49.8438V5.24219C48.6406 3.4375 47.2656 1.97656 45.4609 1.97656ZM46.9219 49.7578C46.9219 50.6172 46.2344 51.3047 45.375 51.3047H9.53906C8.67969 51.3047 7.99219 50.6172 7.99219 49.7578V5.24219C7.99219 4.38281 8.67969 3.69531 9.53906 3.69531H45.4609C46.3203 3.69531 47.0078 4.38281 47.0078 5.24219V49.7578H46.9219Z" fill="#31323A"/>
<path d="M45.4609 3.69531H9.53906C8.67969 3.69531 7.99219 4.38281 7.99219 5.24219V49.8438C7.99219 50.7031 8.67969 51.3906 9.53906 51.3906H45.4609C46.3203 51.3906 47.0078 50.7031 47.0078 49.8438V5.24219C46.9219 4.38281 46.2344 3.69531 45.4609 3.69531ZM44.6875 47.4375C44.6875 47.8672 44.2578 48.2969 43.8281 48.2969H11.2578C10.8281 48.2969 10.3984 47.8672 10.3984 47.4375V43.3125H10.0547C9.625 43.3125 9.19531 42.8828 9.19531 42.4531C9.19531 41.9375 9.625 41.5938 10.0547 41.5938H10.3984V35.6641H10.0547C9.625 35.6641 9.19531 35.3203 9.19531 34.8047C9.19531 34.375 9.625 33.9453 10.0547 33.9453H10.3984V28.0156H10.0547C9.625 28.0156 9.19531 27.6719 9.19531 27.1562C9.19531 26.7266 9.625 26.2969 10.0547 26.2969H10.3984V20.3672H10.0547C9.625 20.3672 9.19531 20.0234 9.19531 19.5078C9.19531 18.9922 9.625 18.6484 10.0547 18.6484H10.3984V12.7188H10.0547C9.625 12.7188 9.19531 12.2891 9.19531 11.8594C9.19531 11.4297 9.625 11 10.0547 11H10.3984V7.21875C10.3984 6.78906 10.8281 6.35938 11.2578 6.35938H43.8281C44.2578 6.35938 44.6875 6.78906 44.6875 7.21875V47.4375Z" fill="#FFBB5C"/>
<path d="M12.1172 8.07812V10.9141H12.8047C13.3203 10.9141 13.6641 11.3438 13.6641 11.7734C13.6641 12.2031 13.3203 12.6328 12.8047 12.6328H12.1172V18.5625H12.8047C13.3203 18.5625 13.6641 18.9063 13.6641 19.4219C13.6641 19.9375 13.3203 20.2813 12.8047 20.2813H12.1172V26.2109H12.8047C13.3203 26.2109 13.6641 26.6406 13.6641 27.0703C13.6641 27.5859 13.3203 27.9297 12.8047 27.9297H12.1172V33.8594H12.8047C13.3203 33.8594 13.6641 34.2891 13.6641 34.7188C13.6641 35.2344 13.3203 35.5781 12.8047 35.5781H12.1172V41.5078H12.8047C13.3203 41.5078 13.6641 41.8516 13.6641 42.3672C13.6641 42.7969 13.3203 43.2266 12.8047 43.2266H12.1172V46.4922H42.9688V8.07812H12.1172ZM17.2734 10.9141H30.4219C30.8516 10.9141 31.2812 11.3438 31.2812 11.7734C31.2812 12.2031 30.8516 12.6328 30.4219 12.6328H17.2734C16.8437 12.6328 16.4141 12.2031 16.4141 11.7734C16.4141 11.3438 16.7578 10.9141 17.2734 10.9141ZM17.0156 16.4141H21.4844C22 16.4141 22.3437 16.8438 22.3437 17.2734C22.3437 17.7031 22 18.1328 21.4844 18.1328H17.0156C16.5859 18.1328 16.1562 17.7031 16.1562 17.2734C16.1562 16.8438 16.5 16.4141 17.0156 16.4141ZM17.0156 22.6875H31.9687C32.3984 22.6875 32.8281 23.0312 32.8281 23.5469C32.8281 24.0625 32.3984 24.4062 31.9687 24.4062H17.0156C16.5859 24.4062 16.1562 24.0625 16.1562 23.5469C16.1562 23.0312 16.5 22.6875 17.0156 22.6875ZM40.0469 43.3125H17.0156C16.5859 43.3125 16.1562 42.8828 16.1562 42.4531C16.1562 41.9375 16.5859 41.5938 17.0156 41.5938H40.1328C40.6484 41.5938 40.9922 41.9375 40.9922 42.4531C40.9062 42.8828 40.5625 43.3125 40.0469 43.3125ZM40.0469 36.9531H17.0156C16.5859 36.9531 16.1562 36.5234 16.1562 36.0937C16.1562 35.6641 16.5859 35.2344 17.0156 35.2344H40.1328C40.6484 35.2344 40.9922 35.6641 40.9922 36.0937C40.9922 36.5234 40.5625 36.9531 40.0469 36.9531ZM40.0469 30.6797H17.0156C16.5859 30.6797 16.1562 30.25 16.1562 29.8203C16.1562 29.3906 16.5859 28.9609 17.0156 28.9609H40.1328C40.6484 28.9609 40.9922 29.3906 40.9922 29.8203C40.9922 30.25 40.5625 30.6797 40.0469 30.6797ZM40.0469 24.4062H34.6328C34.2031 24.4062 33.7734 24.0625 33.7734 23.5469C33.7734 23.0312 34.2031 22.6875 34.6328 22.6875H40.0469C40.5625 22.6875 40.9062 23.0312 40.9062 23.5469C40.9062 24.0625 40.5625 24.4062 40.0469 24.4062ZM40.0469 18.1328H24.9219C24.4062 18.1328 24.0625 17.7031 24.0625 17.2734C24.0625 16.8438 24.4062 16.4141 24.9219 16.4141H40.1328C40.6484 16.4141 40.9922 16.8438 40.9922 17.2734C40.9922 17.7031 40.5625 18.1328 40.0469 18.1328Z" fill="#FFF6E0"/>
</svg>
