<svg width="36" height="29" viewBox="0 0 36 29" fill="none" xmlns="http://www.w3.org/2000/svg">
<path d="M18 0C19.539 0 21.1176 0.0396002 22.6476 0.1044L24.4548 0.1908L26.1846 0.2934L27.8046 0.4032L29.2842 0.5184C30.8901 0.640604 32.4014 1.32558 33.5519 2.45268C34.7024 3.57978 35.4183 5.07671 35.5734 6.6798L35.6454 7.4448L35.7804 9.0828C35.9064 10.7802 36 12.6306 36 14.4C36 16.1694 35.9064 18.0198 35.7804 19.7172L35.6454 21.3552L35.5734 22.1202C35.4182 23.7236 34.7021 25.2207 33.5512 26.3479C32.4004 27.475 30.8887 28.1598 29.2824 28.2816L27.8064 28.395L26.1864 28.5066L24.4548 28.6092L22.6476 28.6956C21.0993 28.7627 19.5498 28.7975 18 28.8C16.4502 28.7975 14.9007 28.7627 13.3524 28.6956L11.5452 28.6092L9.8154 28.5066L8.1954 28.395L6.7158 28.2816C5.10986 28.1594 3.59856 27.4744 2.44808 26.3473C1.2976 25.2202 0.581743 23.7233 0.4266 22.1202L0.3546 21.3552L0.2196 19.7172C0.0824989 17.948 0.00925135 16.1745 0 14.4C0 12.6306 0.0936 10.7802 0.2196 9.0828L0.3546 7.4448L0.4266 6.6798C0.581683 5.07699 1.29728 3.58029 2.44739 2.45323C3.59751 1.32617 5.10838 0.641009 6.714 0.5184L8.1918 0.4032L9.8118 0.2934L11.5434 0.1908L13.3506 0.1044C14.8995 0.037309 16.4496 0.00250125 18 0ZM18 3.6C16.515 3.6 14.9868 3.6396 13.5 3.7008L11.7396 3.7854L10.0494 3.8844L8.4618 3.9924L7.0074 4.1058C6.24275 4.15933 5.52184 4.48223 4.97279 5.01711C4.42374 5.55199 4.0821 6.26421 4.0086 7.0272C3.798 9.2034 3.6 11.9124 3.6 14.4C3.6 16.8876 3.798 19.5966 4.0086 21.7728C4.1616 23.3424 5.4072 24.5628 7.0074 24.6942L8.4618 24.8058L10.0494 24.9138L11.7396 25.0146L13.5 25.0992C14.9868 25.1604 16.515 25.2 18 25.2C19.485 25.2 21.0132 25.1604 22.5 25.0992L24.2604 25.0146L25.9506 24.9156L27.5382 24.8076L28.9926 24.6942C29.7572 24.6407 30.4782 24.3178 31.0272 23.7829C31.5763 23.248 31.9179 22.5358 31.9914 21.7728C32.202 19.5966 32.4 16.8876 32.4 14.4C32.4 11.9124 32.202 9.2034 31.9914 7.0272C31.9179 6.26421 31.5763 5.55199 31.0272 5.01711C30.4782 4.48223 29.7572 4.15933 28.9926 4.1058L27.5382 3.9942L25.9506 3.8862L24.2604 3.7854L22.5 3.7008C21.0008 3.63646 19.5005 3.60285 18 3.6ZM14.4 10.035C14.3999 9.85907 14.4427 9.68578 14.5249 9.5302C14.607 9.37461 14.7259 9.24144 14.8712 9.14226C15.0165 9.04309 15.1838 8.98091 15.3586 8.96113C15.5334 8.94136 15.7104 8.96459 15.8742 9.0288L16.02 9.1008L23.58 13.464C23.7305 13.5509 23.8579 13.6728 23.9513 13.8194C24.0446 13.966 24.1012 14.133 24.1162 14.3061C24.1312 14.4793 24.1042 14.6535 24.0375 14.814C23.9708 14.9745 23.8663 15.1165 23.733 15.228L23.58 15.336L16.02 19.701C15.8677 19.7892 15.696 19.8389 15.5201 19.8456C15.3442 19.8523 15.1693 19.816 15.0107 19.7397C14.852 19.6634 14.7144 19.5494 14.6099 19.4078C14.5053 19.2661 14.437 19.1011 14.4108 18.927L14.4 18.765V10.035Z" fill="white"/>
</svg>
